<svg width="205" height="118" viewBox="0 0 205 118" fill="none" xmlns="http://www.w3.org/2000/svg">
<g id="RENEGADES LOGO">
<path id="path191" d="M193.51 7.84123C198.827 7.84122 203.699 13.2135 203.568 18.8012C203.533 20.3102 203.21 25.0537 203.052 27.1594C203.027 27.4929 202.786 27.7692 202.462 27.8387L196.854 29.0409C196.364 29.1457 195.919 28.7508 195.972 28.2491C196.351 24.6639 197.284 16.1819 192.337 16.5864C189.034 16.8565 189.01 19.5767 188.578 22.2221C187.491 28.8909 194.838 38.3015 197.838 44.081C199.117 46.5421 200.61 49.0095 201.16 51.8095C203.336 62.8912 200.214 72.4641 190.147 73.9083C178.771 75.1002 177.535 61.1946 178.344 55.4635C178.387 55.1535 178.625 54.9118 178.929 54.8473C180.245 54.5678 183.227 53.897 185.008 53.4967C185.476 53.3914 185.918 53.7505 185.907 54.2342C185.801 58.9652 185.142 66.6438 189.549 65.6325C191.431 65.2006 192.899 64.1717 193.624 60.2983C194.247 56.9829 194.14 53.7926 192.606 50.8376C188.735 43.3812 181.587 34.0868 180.992 25.4591C180.413 17.0611 185.075 7.84123 193.51 7.84123Z" fill="#FF7C2A"/>
<path id="Vector 17" d="M40.178 39.2995L53.7628 36.5005C54.2462 36.4009 54.6915 36.7915 54.6608 37.2884L54.2253 44.3484C54.2044 44.6865 53.9632 44.9694 53.635 45.0407L47.3275 46.4108C47.0041 46.481 46.7646 46.7569 46.7382 47.0895L45.1611 66.9111C45.1213 67.4121 45.568 67.8122 46.0564 67.7128L50.7008 66.7682C51.1886 66.669 51.635 67.068 51.5961 67.5685L51.0437 74.6813C51.0179 75.0137 50.7794 75.2898 50.4566 75.361L45.0515 76.5529C44.7319 76.6234 44.4945 76.8949 44.4651 77.2236L42.9034 94.669C42.8584 95.1718 43.3051 95.577 43.796 95.4786L49.7872 94.2778C50.2727 94.1805 50.7167 94.5763 50.6808 95.0744L50.1556 102.361C50.1311 102.7 49.8858 102.98 49.5557 103.047L35.5613 105.884C35.0743 105.983 34.6286 105.585 34.6663 105.085L39.5807 39.9829C39.6061 39.6461 39.8499 39.3671 40.178 39.2995Z" fill="#FF7C2A"/>
<path id="Vector 49" d="M81.0062 30.7181L94.5909 27.9191C95.0743 27.8195 95.5196 28.2101 95.4889 28.7069L95.0534 35.767C95.0325 36.1051 94.7913 36.388 94.4631 36.4593L88.1556 37.8294C87.8323 37.8996 87.5928 38.1755 87.5663 38.5081L85.9893 58.3297C85.9494 58.8307 86.3961 59.2308 86.8845 59.1314L91.5289 58.1868C92.0167 58.0876 92.4631 58.4866 92.4243 58.9871L91.8719 66.0999C91.8461 66.4323 91.6075 66.7084 91.2847 66.7796L85.8796 67.9715C85.56 68.042 85.3226 68.3135 85.2932 68.6422L83.7316 86.0876C83.6866 86.5904 84.1333 86.9956 84.6241 86.8972L90.6154 85.6964C91.1008 85.5991 91.5448 85.9949 91.5089 86.493L90.9837 93.7794C90.9593 94.1182 90.7139 94.3989 90.3838 94.4659L76.3894 97.3025C75.9024 97.4012 75.4567 97.0034 75.4944 96.5037L80.4088 31.4015C80.4342 31.0647 80.6781 30.7857 81.0062 30.7181Z" fill="#FF7C2A"/>
<path id="Vector 51" d="M164.575 13.591L178.159 10.792C178.643 10.6924 179.088 11.0831 179.057 11.5799L178.622 18.6399C178.601 18.978 178.36 19.2609 178.031 19.3322L171.724 20.7023C171.401 20.7726 171.161 21.0484 171.135 21.381L169.558 41.2026C169.518 41.7036 169.964 42.1037 170.453 42.0044L175.097 41.0597C175.585 40.9605 176.031 41.3595 175.993 41.86L175.44 48.9729C175.414 49.3052 175.176 49.5813 174.853 49.6525L169.448 50.8444C169.128 50.9149 168.891 51.1864 168.862 51.5152L167.3 68.9605C167.255 69.4633 167.702 69.8685 168.192 69.7702L174.184 68.5694C174.669 68.4721 175.113 68.8678 175.077 69.3659L174.552 76.6523C174.528 76.9911 174.282 77.2719 173.952 77.3388L159.958 80.1754C159.471 80.2741 159.025 79.8763 159.063 79.3766L163.977 14.2745C164.003 13.9376 164.246 13.6586 164.575 13.591Z" fill="#FF7C2A"/>
<path id="Vector 48" d="M53.6624 101.178L58.5768 36.1117C58.6329 35.3688 59.6077 35.1469 59.9746 35.7935L68.1443 50.1897C68.5145 50.8421 69.499 50.609 69.5429 49.8586L70.4954 33.5832C70.5151 33.246 70.7542 32.9628 71.081 32.8896L77.1962 31.5186C77.6876 31.4084 78.1448 31.8086 78.106 32.315L73.0924 97.7341C73.0326 98.5134 71.9833 98.7003 71.6627 97.9887L64.156 81.3273C63.835 80.6148 62.784 80.8034 62.7262 81.5839L61.3567 100.087C61.3315 100.427 61.0833 100.708 60.751 100.773L54.5515 101.978C54.0662 102.072 53.6248 101.675 53.6624 101.178Z" fill="#FF7C2A"/>
<path id="Vector 50" d="M106.962 25.4331C100.951 26.4628 97.159 30.9091 96.8258 36.3029C96.3297 44.3361 95.1247 62.7336 94.2741 72.0588C93.4235 81.3839 95.293 86.2539 97.1094 87.9344L110.368 99.6635C110.833 100.075 111.564 99.7731 111.61 99.1509L114.685 57.3338C114.722 56.8305 114.269 56.4325 113.78 56.5386L105.42 58.3524C105.095 58.423 104.854 58.7018 104.83 59.0369L104.337 65.8897C104.302 66.3749 104.724 66.7667 105.2 66.6916L106.068 66.5547C106.307 66.517 106.519 66.7145 106.5 66.9579L105.323 82.0573C105.289 82.4911 104.895 82.8144 104.488 82.6689C101.512 81.6037 101.144 77.1196 101.362 74.8477L104.269 36.3029C104.41 33.2636 108.947 34.0324 108.947 36.0347L108.108 46.2376C108.067 46.7405 108.516 47.1424 109.006 47.0408L115.063 45.7844C115.387 45.7171 115.629 45.4454 115.658 45.1124C115.98 41.3911 116.565 34.3665 116.673 32.0837C116.815 29.0802 114.476 24.1459 106.962 25.4331Z" fill="#FF7C2A"/>
<path id="Subtract" fill-rule="evenodd" clip-rule="evenodd" d="M138.075 20.1118C138.127 19.4243 137.314 19.0309 136.815 19.502L119.581 35.7703C119.17 36.1588 118.918 36.6891 118.875 37.2561L115.053 88.3628C114.991 89.1938 116.112 89.5003 116.474 88.7514L120.765 79.8815C120.867 79.6721 121.058 79.5215 121.284 79.4734L127.664 78.1142C127.996 78.0435 128.334 78.2066 128.487 78.5118L131.764 85.0252C132.107 85.7071 133.122 85.5031 133.18 84.7406L138.075 20.1118ZM124.889 65.7528C124.399 65.866 123.939 65.4686 123.975 64.962L125.545 42.7144C125.583 42.1764 125.81 41.6696 126.185 41.285L128.326 39.0886C128.816 38.5853 129.662 38.9744 129.607 39.678L127.667 64.5681C127.642 64.8978 127.407 65.1723 127.087 65.246L124.889 65.7528Z" fill="#FF7C2A"/>
<path id="Union" fill-rule="evenodd" clip-rule="evenodd" d="M33.1253 63.4774C33.2607 51.9054 31.459 46.4085 26.1214 44.6427L19.8751 58.2799L25.4172 55.9544C25.7058 55.8332 26.0059 56.1009 25.9221 56.4048L25.2338 58.9006L29.2848 56.5143C29.6174 56.3184 29.9915 56.6954 29.7975 57.0312L15.4741 81.8272C15.2482 82.2184 14.6556 81.9511 14.7938 81.5204L19.8751 65.6818L10.0394 69.9288C9.75661 70.051 9.45647 69.7963 9.52728 69.4942L15.3916 44.4802C13.2589 44.7933 10.8952 45.2435 8.28101 45.8019C7.95696 45.8711 7.70802 46.1495 7.6818 46.4826L2.52196 112.028C2.48321 112.52 2.91471 112.917 3.39689 112.833L10.2837 111.631C10.6154 111.573 10.8682 111.299 10.9017 110.961L13.1133 88.6496C13.77 88.5381 14.4612 88.4142 15.1761 88.2673L23.8188 108.04C23.9619 108.367 24.3127 108.548 24.6596 108.474L32.5332 106.796C33.0052 106.695 33.2614 106.177 33.0576 105.736L23.5444 85.152C28.637 81.9834 32.98 75.8938 33.1253 63.4774Z" fill="#FF7C2A"/>
<path id="Subtract_2" fill-rule="evenodd" clip-rule="evenodd" d="M140.706 19.6116L135.979 83.2512C135.904 84.2543 136.809 85.0497 137.782 84.833C155.124 80.9746 156.049 77.2593 158.265 49.9072C160.016 28.2887 160.597 15.0604 141.931 18.2521C141.265 18.3658 140.757 18.9328 140.706 19.6116ZM147.288 29.7518L144.105 72.03C144.019 73.1692 145.184 73.9849 146.065 73.2675C149.171 70.7395 149.511 66.1894 150.345 55.0238C150.447 53.654 150.557 52.1845 150.68 50.607C150.787 49.2359 150.896 47.9086 151.001 46.6311C151.955 35.0413 152.571 27.5476 148.239 28.5346C147.687 28.6602 147.33 29.1829 147.288 29.7518Z" fill="#FF7C2A"/>
</g>
</svg>
