<svg width="26" height="24" viewBox="0 0 26 24" fill="none" xmlns="http://www.w3.org/2000/svg">
<path fill-rule="evenodd" clip-rule="evenodd" d="M8.47185 0.714355H0.830726L10.2363 13.2904L0.713867 23.5774H3.35754L11.4175 14.8701L17.9297 23.5774H25.5709L15.644 10.3044L24.521 0.714355H21.8774L14.4627 8.72473L8.47185 0.714355ZM1.17154 23.3774L10.4962 13.304L1.23005 0.914355H8.37168L8.37183 0.914551H1.23039L10.4965 13.3042L1.17206 23.3774H1.17154ZM11.4341 14.5583L18.0299 23.3774H18.0301L11.4342 14.5582L11.4341 14.5583ZM24.0632 0.914551L24.0634 0.914355H21.9648L14.4465 9.0367L14.4467 9.03701L21.9651 0.914551H24.0632ZM18.8042 21.8313H22.0849L7.59723 2.46038H7.59742L22.0852 21.8315H18.8044L18.8042 21.8313ZM18.9042 21.6313L4.71553 2.66019H7.49692L21.6856 21.6313H18.9042Z" fill="white"/>
</svg>
