<svg width="48" height="48" viewBox="0 0 48 48" fill="none" xmlns="http://www.w3.org/2000/svg">
<rect width="48" height="48" rx="24" fill="black"/>
<path fill-rule="evenodd" clip-rule="evenodd" d="M19.4728 12.7143H11.8317L21.2372 25.2904L11.7148 35.5773H14.3585L22.4185 26.87L28.9307 35.5773H36.5718L26.645 22.3043L35.522 12.7143H32.8783L25.4637 20.7247L19.4728 12.7143ZM12.1725 35.3773L21.4972 25.304L12.231 12.9143H19.3727L19.3728 12.9145H12.2314L21.4975 25.3042L12.173 35.3773H12.1725ZM22.4351 26.5583L29.0309 35.3773H29.0311L22.4352 26.5582L22.4351 26.5583ZM35.0642 12.9145L35.0643 12.9143H32.9657L25.4475 21.0366L25.4477 21.037L32.9661 12.9145H35.0642ZM29.8052 33.8313H33.0859L18.5982 14.4603H18.5984L33.0862 33.8314H29.8053L29.8052 33.8313ZM29.9052 33.6313L15.7165 14.6601H18.4979L32.6865 33.6313H29.9052Z" fill="white"/>
</svg>
