<svg width="120" height="120" viewBox="0 0 120 120" fill="none" xmlns="http://www.w3.org/2000/svg">
<rect width="120" height="120" rx="60" fill="#222222"/>
<g opacity="0.5">
<path fill-rule="evenodd" clip-rule="evenodd" d="M76.7605 42.59C76.9043 30.4112 74.9913 24.6261 69.3239 22.7677L62.6917 37.1199L69.1384 34.4386C69.2168 34.406 69.2982 34.4781 69.2755 34.5599L68.3814 37.7733L73.6545 34.6944C73.7448 34.6416 73.8463 34.7431 73.7937 34.8334L56.6346 64.2771C56.5732 64.3824 56.4124 64.3105 56.4499 64.1946L62.6917 44.9099L51.7085 49.6108C51.6317 49.6437 51.5502 49.5751 51.5694 49.4938L57.9312 22.5968C55.5076 22.9495 52.8031 23.4674 49.7922 24.1134L44.1855 94.7084L53.1039 93.1656L55.5123 69.082C56.2098 68.9646 56.9439 68.8342 57.7033 68.6795L67.074 89.9288C67.1129 90.0169 67.2081 90.0657 67.3023 90.0458L76.8621 88.0256C76.9903 87.9985 77.0598 87.8592 77.0045 87.7405L66.5884 65.4007C71.9953 62.0658 76.6062 55.6569 76.7605 42.59Z" fill="#444444"/>
<path fill-rule="evenodd" clip-rule="evenodd" d="M58.1833 22.365L51.7979 49.3623L63.005 44.5656L56.8931 63.4488L73.4517 35.0357L68.0672 38.1796L69.0385 34.6888L62.3082 37.488L69.2199 22.5309L69.3831 22.5844C72.28 23.5343 74.2154 25.4934 75.4017 28.7425C76.583 31.9779 77.0245 36.4982 76.9525 42.5923C76.799 55.5944 72.2452 62.0727 66.8346 65.4741L77.1784 87.659C77.2863 87.8902 77.1507 88.1616 76.9011 88.2143L67.3413 90.2346C67.1578 90.2733 66.9723 90.1782 66.8966 90.0067L57.5885 68.8993C56.9327 69.0307 56.2969 69.1445 55.6887 69.2477L53.2804 93.3306L43.9727 94.9409L49.6104 23.9549L49.7508 23.9247C52.7639 23.2783 55.4729 22.7594 57.9025 22.4059L58.1833 22.365ZM51.6317 49.4334C51.6316 49.4335 51.6317 49.4334 51.6317 49.4334V49.4334ZM49.9723 24.2719L44.3966 94.476L52.9256 93.0004L55.3341 68.9162L55.4794 68.8917C56.1757 68.7746 56.9075 68.6445 57.6639 68.4904L57.8162 68.4594L67.2496 89.851C67.2516 89.8555 67.2566 89.8581 67.2615 89.857L76.8214 87.8368C76.828 87.8354 76.8316 87.8282 76.8287 87.822L66.3401 65.3266L66.4862 65.2365C71.8258 61.9432 76.413 55.6028 76.5667 42.5878C76.6385 36.503 76.1954 32.0414 75.0393 28.8749C73.9108 25.7842 72.1061 23.9334 69.4255 23.0058L63.0734 36.7519L69.0634 34.2605C69.2904 34.1661 69.5263 34.3747 69.4605 34.6116L68.6938 37.3669L73.5563 34.5278C73.8179 34.375 74.112 34.6689 73.9595 34.9306L56.8004 64.3743C56.6227 64.6791 56.1568 64.4708 56.2654 64.1352L62.3766 45.2543L51.7835 49.7881C51.5611 49.8833 51.3251 49.6848 51.3808 49.4494L57.6771 22.8291C55.3697 23.1739 52.809 23.6651 49.9723 24.2719Z" fill="#444444"/>
</g>
</svg>
