<svg width="124" height="123" viewBox="0 0 124 123" fill="none" xmlns="http://www.w3.org/2000/svg">
<g filter="url(#filter0_d_270_39397)">
<g clip-path="url(#clip0_270_39397)">
<rect x="2" width="120" height="120" rx="60" fill="#FF7C2A"/>
<path d="M11 111.183L12.7022 106.564C14.2909 100.219 17.8996 87.1894 19.6245 85.8377C21.3494 84.486 29.119 81.7449 32.7882 80.5434C30.8968 79.83 27.4319 77.9976 28.7029 76.3755C30.2916 74.3479 38.2352 65.3363 43.2283 64.6604C47.2228 64.1197 49.4319 64.0597 50.0371 64.0972V60.6052C49.3184 60.1922 47.7675 58.848 47.3136 56.7753C46.8597 54.7026 46.0653 52.307 45.7249 51.3683C45.271 51.9316 44.0454 52.7201 42.7744 51.3683C41.1857 49.6787 38.5756 46.412 39.2565 43.0326C39.9374 39.6533 40.7318 39.2027 40.7318 39.2027L41.4126 34.021C40.1644 34.6218 37.5089 35.8008 36.8734 35.7107C36.0791 35.598 41.1857 31.8807 41.6396 30.1911C40.24 30.4539 37.1912 30.7318 36.1926 29.7405C37.1761 29.1773 39.37 27.6904 40.2778 26.2485C41.1857 24.8066 43.0014 23.3197 43.7957 22.7565C41.6018 22.8316 37.0096 22.396 36.1926 20.053C38.2352 20.2032 43.0014 19.8953 45.7249 17.4622C44.7414 17.312 42.7744 16.7863 42.7744 15.8852C43.8335 15.9227 46.2015 15.6373 47.2001 14.1955C48.4484 12.3932 52.4202 12.7311 53.6685 13.1817C53.1767 12.6935 52.1932 11.5145 52.1932 10.7035C52.1932 9.68968 53.555 12.5058 56.9594 12.1679C60.3638 11.8299 66.4917 9.35174 69.2152 15.0966C70.8796 13.8951 73.3686 10.7936 70.0096 8C72.1657 8.26284 75.7517 10.4557 72.8466 17.1242C73.7923 16.6361 75.7744 15.2769 76.1375 13.7449C76.7049 14.6836 77.5674 17.0341 76.478 18.9266C77.0832 18.8139 78.5433 18.8815 79.5419 20.053C80.7902 21.5174 82.9463 23.6577 84.989 22.1933C84.3837 22.9818 82.8101 24.5588 81.3576 24.5588C79.5419 24.5588 83.1733 27.1496 84.989 27.6002C84.3837 28.1259 82.9917 29.1547 82.2654 29.0646C83.1733 29.7029 85.0343 31.5653 85.2159 33.9083C84.3827 33.4259 82.5937 32.4438 81.6033 32.0765C81.8877 33.3052 82.7253 35.6717 83.9676 35.936L82.2654 35.598C82.4167 36.5743 82.674 38.662 82.4924 39.2027C82.9085 39.09 83.7861 39.2703 83.9676 40.8923C84.1946 42.9199 84.4216 46.074 84.1946 46.7499C84.013 47.2906 81.0172 50.6549 79.5419 52.2695L77.9532 51.8189C77.0832 54.5599 75.1389 60.1547 74.3218 60.6052V64.0972C75.9106 64.285 79.3377 64.6604 80.3363 64.6604C81.5846 64.6604 90.5495 70.2927 92.4786 72.9962C94.4078 75.6996 95.9965 76.7134 95.5426 77.6146C95.1795 78.3355 92.9704 79.7173 91.9112 80.3181L104.054 85.9503C105.604 88.1657 108.979 94.5339 110.068 102.284C110.825 104.912 112.68 110.312 112.905 111.295C115.878 124.262 48.3438 126.858 11 111.183Z" fill="#121212"/>
</g>
</g>
<defs>
<filter id="filter0_d_270_39397" x="0.666667" y="0" width="122.667" height="122.667" filterUnits="userSpaceOnUse" color-interpolation-filters="sRGB">
<feFlood flood-opacity="0" result="BackgroundImageFix"/>
<feColorMatrix in="SourceAlpha" type="matrix" values="0 0 0 0 0 0 0 0 0 0 0 0 0 0 0 0 0 0 127 0" result="hardAlpha"/>
<feOffset dy="1.33333"/>
<feGaussianBlur stdDeviation="0.666667"/>
<feComposite in2="hardAlpha" operator="out"/>
<feColorMatrix type="matrix" values="0 0 0 0 0 0 0 0 0 0 0 0 0 0 0 0 0 0 0.25 0"/>
<feBlend mode="normal" in2="BackgroundImageFix" result="effect1_dropShadow_270_39397"/>
<feBlend mode="normal" in="SourceGraphic" in2="effect1_dropShadow_270_39397" result="shape"/>
</filter>
<clipPath id="clip0_270_39397">
<rect x="2" width="120" height="120" rx="60" fill="white"/>
</clipPath>
</defs>
</svg>
