<svg width="88" height="50" viewBox="0 0 88 50" fill="none" xmlns="http://www.w3.org/2000/svg">
<path d="M83.0683 3.32244C85.3504 3.32244 87.4418 5.59884 87.3859 7.96649C87.3706 8.60591 87.232 10.6159 87.1642 11.5081C87.1534 11.6494 87.0502 11.7665 86.911 11.7959L84.5035 12.3053C84.2935 12.3498 84.1024 12.1824 84.1251 11.9699C84.2877 10.4507 84.6881 6.85663 82.5645 7.02803C81.1466 7.14246 81.1364 8.29509 80.951 9.41602C80.4843 12.2418 83.6381 16.2293 84.9261 18.6783C85.4749 19.7211 86.116 20.7666 86.3522 21.953C87.2861 26.6487 85.9459 30.705 81.6247 31.317C76.7412 31.822 76.2108 25.9298 76.5577 23.5014C76.5764 23.37 76.6785 23.2676 76.8089 23.2403C77.374 23.1218 78.654 22.8376 79.4186 22.668C79.6195 22.6234 79.809 22.7755 79.8044 22.9805C79.7587 24.9851 79.4759 28.2388 81.3678 27.8103C82.1758 27.6272 82.8059 27.1913 83.1173 25.55C83.3845 24.1452 83.3384 22.7934 82.68 21.5412C81.0186 18.3817 77.95 14.4435 77.6946 10.7876C77.4462 7.22915 79.4474 3.32244 83.0683 3.32244Z" fill="#FF7C2A"/>
<path d="M17.2478 16.6523L23.0793 15.4663C23.2868 15.4241 23.478 15.5897 23.4648 15.8002L23.2779 18.7917C23.2689 18.935 23.1654 19.0548 23.0245 19.085L20.3169 19.6656C20.1781 19.6954 20.0753 19.8122 20.0639 19.9532L19.3869 28.3522C19.3698 28.5645 19.5616 28.734 19.7712 28.6919L21.7649 28.2916C21.9743 28.2496 22.1659 28.4187 22.1493 28.6307L21.9121 31.6447C21.9011 31.7855 21.7987 31.9025 21.6601 31.9326L19.3399 32.4377C19.2027 32.4676 19.1008 32.5826 19.0881 32.7219L18.4178 40.114C18.3984 40.327 18.5902 40.4988 18.8009 40.4571L21.3728 39.9483C21.5812 39.907 21.7718 40.0747 21.7563 40.2858L21.5309 43.3732C21.5204 43.5168 21.4151 43.6358 21.2734 43.6641L15.266 44.8661C15.057 44.9079 14.8656 44.7393 14.8818 44.5276L16.9914 16.9419C17.0023 16.7992 17.107 16.681 17.2478 16.6523Z" fill="#FF7C2A"/>
<path d="M34.7732 13.0161L40.6047 11.8301C40.8122 11.7879 41.0034 11.9534 40.9902 12.1639L40.8033 15.1555C40.7943 15.2988 40.6908 15.4186 40.5499 15.4488L37.8423 16.0294C37.7035 16.0591 37.6006 16.176 37.5893 16.317L36.9123 24.7159C36.8952 24.9282 37.087 25.0978 37.2966 25.0557L39.2903 24.6554C39.4997 24.6133 39.6913 24.7824 39.6747 24.9945L39.4375 28.0084C39.4264 28.1493 39.3241 28.2662 39.1855 28.2964L36.8652 28.8015C36.728 28.8313 36.6261 28.9464 36.6135 29.0857L35.9432 36.4778C35.9238 36.6908 36.1156 36.8625 36.3263 36.8208L38.8981 36.312C39.1066 36.2708 39.2971 36.4385 39.2817 36.6495L39.0563 39.737C39.0458 39.8805 38.9404 39.9995 38.7987 40.0279L32.7914 41.2298C32.5824 41.2717 32.391 41.1031 32.4072 40.8914L34.5168 13.3057C34.5277 13.163 34.6324 13.0448 34.7732 13.0161Z" fill="#FF7C2A"/>
<path d="M70.6463 5.75878L76.4778 4.57277C76.6853 4.53057 76.8764 4.6961 76.8633 4.90661L76.6763 7.89817C76.6673 8.04143 76.5638 8.16128 76.4229 8.19149L73.7153 8.77205C73.5765 8.80182 73.4737 8.91869 73.4623 9.05965L72.7854 17.4586C72.7682 17.6709 72.96 17.8404 73.1697 17.7983L75.1633 17.3981C75.3727 17.356 75.5644 17.5251 75.5477 17.7372L75.3106 20.7511C75.2995 20.8919 75.1971 21.0089 75.0585 21.0391L72.7383 21.5441C72.6011 21.574 72.4992 21.689 72.4866 21.8283L71.8162 29.2204C71.7969 29.4335 71.9886 29.6052 72.1993 29.5635L74.7712 29.0547C74.9796 29.0135 75.1702 29.1812 75.1548 29.3922L74.9293 32.4797C74.9188 32.6232 74.8135 32.7422 74.6718 32.7706L68.6644 33.9725C68.4554 34.0143 68.2641 33.8458 68.2803 33.634L70.3898 6.04838C70.4008 5.90564 70.5054 5.78743 70.6463 5.75878Z" fill="#FF7C2A"/>
<path d="M23.0361 42.8721L25.1457 15.3017C25.1698 14.9869 25.5883 14.8929 25.7458 15.1668L29.2527 21.267C29.4116 21.5434 29.8343 21.4446 29.8531 21.1267L30.262 14.2303C30.2705 14.0874 30.3731 13.9674 30.5134 13.9364L33.1384 13.3554C33.3494 13.3088 33.5457 13.4783 33.529 13.6929L31.3768 41.4129C31.3511 41.7431 30.9007 41.8223 30.7631 41.5208L27.5407 34.4608C27.4029 34.1589 26.9517 34.2389 26.9269 34.5696L26.339 42.4097C26.3282 42.554 26.2217 42.6731 26.0791 42.7005L23.4178 43.2111C23.2095 43.2511 23.02 43.0828 23.0361 42.8721Z" fill="#FF7C2A"/>
<path d="M45.9163 10.7767C43.336 11.213 41.7081 13.097 41.5651 15.3825C41.3521 18.7864 40.8349 26.582 40.4697 30.5333C40.1046 34.4846 40.9071 36.5482 41.6868 37.2603L47.3784 42.2302C47.578 42.4045 47.8918 42.2767 47.9114 42.013L49.2315 24.2939C49.2474 24.0806 49.053 23.912 48.843 23.957L45.2544 24.7255C45.1147 24.7554 45.0115 24.8736 45.0012 25.0155L44.7894 27.9193C44.7744 28.1249 44.9554 28.2909 45.1599 28.2591L45.5326 28.2011C45.6352 28.1851 45.7259 28.2688 45.7178 28.3719L45.2128 34.7699C45.1983 34.9538 45.0287 35.0908 44.8542 35.0291C43.5766 34.5777 43.4187 32.6777 43.5125 31.7151L44.76 15.3825C44.8209 14.0947 46.7683 14.4204 46.7683 15.2689L46.4082 19.5921C46.3905 19.8052 46.5833 19.9755 46.7937 19.9324L49.3937 19.4001C49.533 19.3716 49.6369 19.2564 49.6493 19.1154C49.7873 17.5385 50.0386 14.562 50.0849 13.5947C50.1457 12.322 49.1416 10.2312 45.9163 10.7767Z" fill="#FF7C2A"/>
<path fill-rule="evenodd" clip-rule="evenodd" d="M59.2722 8.52193C59.2945 8.23062 58.9458 8.06394 58.7315 8.26355L51.3335 15.1569C51.1568 15.3215 51.0487 15.5462 51.0305 15.7865L49.3897 37.4419C49.3631 37.794 49.8442 37.9238 49.9997 37.6065L51.8418 33.8481C51.8853 33.7594 51.9674 33.6955 52.0645 33.6751L54.8032 33.0992C54.9457 33.0692 55.0907 33.1384 55.1566 33.2677L56.5632 36.0276C56.7105 36.3166 57.1461 36.2301 57.1709 35.907L59.2722 8.52193ZM53.6121 27.8614C53.4014 27.9093 53.2041 27.7409 53.2195 27.5262L53.8936 18.0993C53.9099 17.8713 54.0073 17.6566 54.1682 17.4936L55.0871 16.5629C55.2977 16.3497 55.6608 16.5145 55.6373 16.8127L54.8046 27.3594C54.7936 27.499 54.6927 27.6154 54.5556 27.6466L53.6121 27.8614Z" fill="#FF7C2A"/>
<path fill-rule="evenodd" clip-rule="evenodd" d="M14.2201 26.8973C14.2782 21.9939 13.5048 19.6647 11.2136 18.9165L8.53224 24.695L10.9113 23.7096C11.0352 23.6583 11.164 23.7717 11.128 23.9004L10.8326 24.958L12.5715 23.9468C12.7143 23.8638 12.8749 24.0236 12.7916 24.1659L6.64302 34.6727C6.54603 34.8384 6.29165 34.7252 6.35097 34.5427L8.53224 27.8314L4.31009 29.631C4.18868 29.6827 4.05984 29.5748 4.09023 29.4468L6.60759 18.8477C5.69208 18.9803 4.67746 19.1711 3.55525 19.4077C3.41615 19.437 3.30929 19.555 3.29803 19.6961L1.08307 47.4697C1.06644 47.6783 1.25167 47.8465 1.45865 47.8108L4.41493 47.3015C4.55734 47.277 4.66585 47.1609 4.68023 47.0177L5.62958 37.5635C5.91149 37.5162 6.20821 37.4637 6.51511 37.4015L10.2251 45.7796C10.2866 45.9183 10.4371 45.9952 10.5861 45.9638L13.966 45.2525C14.1686 45.2099 14.2785 44.9905 14.191 44.8036L10.1073 36.0815C12.2934 34.7388 14.1577 32.1585 14.2201 26.8973Z" fill="#FF7C2A"/>
<path fill-rule="evenodd" clip-rule="evenodd" d="M60.4004 8.30991L58.371 35.2758C58.339 35.7009 58.7272 36.0379 59.1452 35.9461C66.5895 34.3112 66.9865 32.7369 67.9377 21.147C68.6896 11.9866 68.9387 6.38142 60.9259 7.73385C60.6403 7.78205 60.422 8.02229 60.4004 8.30991ZM63.2254 12.6066L61.8592 30.5211C61.8224 31.0038 62.3223 31.3494 62.7007 31.0455C64.0338 29.9743 64.1797 28.0463 64.5377 23.3151C64.5817 22.7346 64.6288 22.112 64.6817 21.4436C64.7277 20.8626 64.7745 20.3002 64.8197 19.7588C65.229 14.8479 65.4936 11.6726 63.6338 12.0908C63.397 12.1441 63.2438 12.3655 63.2254 12.6066Z" fill="#FF7C2A"/>
</svg>
