<svg width="18" height="18" viewBox="0 0 18 18" fill="none" xmlns="http://www.w3.org/2000/svg">
<g id="Group 48095719">
<path id="Vector" d="M13.9314 6.00305L12.3411 6.01562C12.1574 6.01707 11.9805 5.9404 11.8556 5.80385L11.2046 5.08783C11.1062 4.9808 10.9707 4.91868 10.8244 4.91983C10.6781 4.92099 10.5436 4.98525 10.447 5.09381L9.89691 5.71896C9.7185 5.9211 9.45692 6.04213 9.18688 6.04426L0.4816 6.11305C0.239697 6.81011 0.0844201 7.55109 0.0269019 8.32104L8.24459 8.2561C8.39087 8.25494 8.52541 8.1944 8.62583 8.08952L9.38454 7.29173C9.47749 7.19063 9.61207 7.1338 9.74709 7.13273L9.77709 7.1325C9.92337 7.13134 10.0589 7.19347 10.1573 7.30049L10.8083 8.01651C10.9331 8.15307 11.1101 8.22973 11.2938 8.22828L18 8.17529C17.93 7.41007 17.7627 6.66792 17.5095 5.97106L13.9314 6.00305Z" fill="white"/>
<path id="Vector_2" d="M5.0373 12.9208C5.18358 12.9196 5.31812 12.8591 5.41855 12.7542L6.17729 11.9564C6.27399 11.8552 6.40481 11.7984 6.54359 11.7973L6.57359 11.7971C6.71987 11.7959 6.85915 11.858 6.95376 11.9614L7.6047 12.6774C7.72958 12.8139 7.9065 12.8906 8.09028 12.8891L17.1819 12.817C17.5175 12.1154 17.759 11.3663 17.9027 10.5808L9.17495 10.6501C8.99117 10.6515 8.81426 10.5749 8.68937 10.4383L8.0385 9.72977C7.94011 9.62274 7.8046 9.56434 7.65833 9.5655C7.51205 9.56666 7.37379 9.63095 7.28086 9.73578L6.73078 10.3609C6.5524 10.5668 6.29079 10.6841 6.01699 10.6863L0.169716 10.7327C0.326079 11.5158 0.579659 12.261 0.926615 12.9571L5.0373 12.9208Z" fill="white"/>
<path id="Vector_3" d="M11.41 3.61034C11.5563 3.60918 11.6909 3.54863 11.7913 3.44375L12.55 2.64593C12.643 2.54483 12.7776 2.488 12.9163 2.4869L12.9463 2.48666C13.0926 2.4855 13.2281 2.54762 13.3265 2.65464L13.9775 3.37436C14.1024 3.51091 14.2793 3.58757 14.4631 3.58611L16.1921 3.57239C14.5281 1.41466 11.8988 0.0340853 8.95076 0.0574799C6.00274 0.0808745 3.39236 1.50303 1.76336 3.68689L11.41 3.61034Z" fill="white"/>
<path id="Vector_4" d="M8.03273 15.1092L5.66981 15.1279C5.48603 15.1294 5.30912 15.0527 5.18423 14.9162L4.5333 14.2002C4.43491 14.0932 4.2994 14.0348 4.15313 14.0359C4.00685 14.0371 3.86859 14.1014 3.77566 14.2062L3.22558 14.8314C3.0472 15.0372 2.78559 15.1545 2.51179 15.1567L2.47428 15.157C4.13494 16.891 6.48796 17.9689 9.09466 17.9483C11.7014 17.9276 14.0329 16.8124 15.6691 15.0523L8.03273 15.1092Z" fill="white"/>
</g>
</svg>
