<svg width="1920" height="1067" viewBox="0 0 1920 1067" fill="none" xmlns="http://www.w3.org/2000/svg">
<path d="M0 422.875L1920 0.208008V643.708L0 1066.37V422.875Z" fill="#222222"/>
<mask id="mask0_834_9793" style="mask-type:alpha" maskUnits="userSpaceOnUse" x="0" y="0" width="1920" height="1067">
<path d="M0 422.875L1920 0.208008V644.041L0 1066.71V422.875Z" fill="#222222"/>
</mask>
<g mask="url(#mask0_834_9793)">
<path opacity="0.05" d="M309.302 794.643L481.09 68.208H794.601L606.496 475.341L765.666 409.128C773.957 405.679 782.576 413.301 780.169 421.953L760.4 493.016L876.745 425.072C886.299 419.492 897.042 430.229 891.472 439.788L480.097 1145.8C473.608 1156.93 456.589 1149.32 460.558 1137.06L606.496 686.092L324.011 807.018C315.888 810.495 307.268 803.243 309.302 794.643Z" fill="white"/>
</g>
</svg>
