<?xml version="1.0" standalone="no"?>
<svg id="Group48095715" width="50" height="50" viewBox="0 0 50 50" fill="none" xmlns="http://www.w3.org/2000/svg" style="max-width: 100%; max-height: 100%;">
<rect x="2.67383" y="2.67285" width="44.6542" height="44.6542" rx="22.3271" fill="black" fill-opacity="0.8" stroke-dasharray="0,0,77.35940911532781,62.02192328213312"><animate attributeType="XML" attributeName="stroke-dasharray" repeatCount="indefinite" dur="1.4619823616935104s" values="0,0,77.35940911532781,62.02192328213312; 
          0,62.02192328213312,77.35940911532781,0; 
          77.35940911532781,62.02192328213312,0,0" keyTimes="0; 0.44498012908407925; 1" begin="0.27602739877538207s"></animate></rect>
<path fill-rule="evenodd" clip-rule="evenodd" d="M25 49C11.7452 49 1 38.2548 1 25C1 11.7452 11.7452 1 25 1C38.2548 1 49 11.7452 49 25C49 38.2548 38.2548 49 25 49ZM25 2.67288C12.6691 2.67288 2.67288 12.6691 2.67288 25C2.67288 37.3309 12.6691 47.3271 25 47.3271C37.3309 47.3271 47.3271 37.3309 47.3271 25C47.3271 12.6691 37.3309 2.67288 25 2.67288Z" fill="#8C8C8C" stroke-dasharray="0,0,160.13447396468538,130.988176181799"><animate attributeType="XML" attributeName="stroke-dasharray" repeatCount="indefinite" dur="1.5472881385689934s" values="0,0,160.13447396468538,130.988176181799; 
          0,130.988176181799,160.13447396468538,0; 
          160.13447396468538,130.988176181799,0,0" keyTimes="0; 0.4499415490889822; 1" begin="0.48475743102486063s"></animate></path>
<rect x="1.67383" y="1.67285" width="46.6542" height="46.6542" rx="23.3271" stroke="white" stroke-width="2" stroke-dasharray="0,0,70.56408319541107,75.05994024208893"><animate attributeType="XML" attributeName="stroke-dasharray" repeatCount="indefinite" dur="1.2528170180391671s" values="0,0,70.56408319541107,75.05994024208893; 
          0,75.05994024208893,70.56408319541107,0; 
          70.56408319541107,75.05994024208893,0,0" keyTimes="0; 0.5154365225618402; 1" begin="0.13786492776864767s"></animate></rect>
<rect x="1.67383" y="1.67285" width="46.6542" height="46.6542" rx="23.3271" stroke="#FF7C2A" stroke-width="2" stroke-dasharray="0,0,65.53502939225332,80.08899404524668"><animate attributeType="XML" attributeName="stroke-dasharray" repeatCount="indefinite" dur="1.5418678244079598s" values="0,0,65.53502939225332,80.08899404524668; 
          0,80.08899404524668,65.53502939225332,0; 
          65.53502939225332,80.08899404524668,0,0" keyTimes="0; 0.5499710291936816; 1" begin="0.502064611911918s"></animate></rect>
<path fill-rule="evenodd" clip-rule="evenodd" d="M22.311 20.695L25.0058 9.30151L24.564 9.3658C23.5678 9.51074 22.5792 9.70104 21.5939 9.90646C21.1549 9.99799 20.8302 10.3694 20.7947 10.8165L18.4684 40.1075C18.4422 40.4378 18.7343 40.7042 19.0608 40.6477L22.4494 40.0615C22.674 40.0226 22.8451 39.8388 22.8678 39.612L23.8556 29.734C24.0101 29.7071 24.1687 29.6784 24.3306 29.6473L28.1489 38.3059C28.268 38.5758 28.5599 38.7254 28.8485 38.6644L32.4492 37.9035C32.8419 37.8205 33.0551 37.3935 32.8855 37.0298L28.6836 28.0179C30.9906 26.4942 32.8695 23.6593 32.9341 18.189C32.9648 15.587 32.7777 13.6273 32.26 12.2092C31.7343 10.7695 30.8636 9.87938 29.5567 9.45075L29.3 9.36653L26.0342 16.4337L29.0057 15.1978L28.5677 16.7723L30.6068 15.5817L25.0089 25.1871L27.1305 18.6322L22.311 20.695Z" fill="#FF7C2A" stroke-dasharray="0,0,73.77008719991424,72.3257227366092"><animate attributeType="XML" attributeName="stroke-dasharray" repeatCount="indefinite" dur="1.3859880771739193s" values="0,0,73.77008719991424,72.3257227366092; 
          0,72.3257227366092,73.77008719991424,0; 
          73.77008719991424,72.3257227366092,0,0" keyTimes="0; 0.4950567902531475; 1" begin="0.4569614607817206s"></animate></path>
</svg>