<svg width="431" height="248" viewBox="0 0 431 248" fill="none" xmlns="http://www.w3.org/2000/svg">
<path d="M406.842 16.4799C418.019 16.4799 428.262 27.7708 427.988 39.5144C427.913 42.6859 427.234 52.6554 426.902 57.0808C426.85 57.7818 426.344 58.3623 425.662 58.5084L413.871 61.0351C412.842 61.2555 411.906 60.4254 412.018 59.3711C412.814 51.836 414.775 34.0095 404.374 34.8596C397.43 35.4272 397.38 41.1442 396.472 46.704C394.186 60.7198 409.632 80.498 415.941 92.6449C418.628 97.8174 421.769 103.003 422.925 108.888C427.5 132.178 420.935 152.297 399.771 155.333C375.853 157.838 373.256 128.612 374.954 116.567C375.046 115.916 375.546 115.408 376.185 115.272C378.953 114.685 385.222 113.275 388.966 112.434C389.95 112.213 390.879 112.967 390.856 113.984C390.632 123.927 389.247 140.065 398.513 137.939C402.471 137.032 405.557 134.869 407.082 126.729C408.39 119.761 408.165 113.056 404.94 106.845C396.803 91.174 381.774 71.6401 380.523 53.5072C379.306 35.8572 389.108 16.4799 406.842 16.4799Z" fill="white"/>
<path d="M84.4717 82.5955L113.033 76.7129C114.049 76.5036 114.985 77.3246 114.921 78.3687L114.005 93.2069C113.961 93.9174 113.454 94.5119 112.764 94.6618L99.5031 97.5413C98.8232 97.689 98.3196 98.2686 98.264 98.9678L94.9484 140.627C94.8646 141.68 95.8038 142.521 96.8306 142.312L106.595 140.326C107.621 140.118 108.559 140.957 108.478 142.008L107.316 156.957C107.262 157.656 106.76 158.236 106.082 158.386L94.7179 160.891C94.0459 161.039 93.5468 161.61 93.4849 162.301L90.2017 198.965C90.1071 200.022 91.0462 200.874 92.0782 200.667L104.674 198.143C105.695 197.939 106.629 198.771 106.553 199.817L105.449 215.131C105.398 215.843 104.882 216.433 104.188 216.574L74.7653 222.536C73.7414 222.743 72.8043 221.907 72.8836 220.857L83.2158 84.0319C83.2692 83.3239 83.7819 82.7376 84.4717 82.5955Z" fill="white"/>
<path d="M170.312 64.56L198.873 58.6775C199.889 58.4681 200.825 59.2891 200.761 60.3333L199.845 75.1714C199.801 75.882 199.294 76.4764 198.604 76.6263L185.343 79.5059C184.663 79.6535 184.159 80.2332 184.104 80.9323L180.788 122.591C180.704 123.644 181.644 124.485 182.67 124.276L192.435 122.291C193.461 122.082 194.399 122.921 194.317 123.973L193.156 138.922C193.102 139.62 192.6 140.201 191.922 140.35L180.558 142.855C179.886 143.004 179.387 143.574 179.325 144.265L176.042 180.93C175.947 181.987 176.886 182.838 177.918 182.632L190.514 180.108C191.535 179.903 192.468 180.735 192.393 181.782L191.289 197.096C191.237 197.808 190.721 198.398 190.027 198.538L160.605 204.5C159.581 204.708 158.644 203.872 158.723 202.821L169.056 65.9965C169.109 65.2885 169.622 64.7021 170.312 64.56Z" fill="white"/>
<path d="M346.009 28.5641L374.57 22.6815C375.586 22.4722 376.522 23.2932 376.458 24.3374L375.542 39.1755C375.498 39.8861 374.991 40.4805 374.301 40.6304L361.04 43.5099C360.36 43.6576 359.857 44.2373 359.801 44.9364L356.485 86.5953C356.402 87.6483 357.341 88.4891 358.368 88.2804L368.132 86.295C369.158 86.0865 370.096 86.9251 370.015 87.977L368.853 102.926C368.799 103.625 368.298 104.205 367.619 104.354L356.255 106.86C355.583 107.008 355.084 107.578 355.022 108.269L351.739 144.934C351.644 145.991 352.583 146.842 353.615 146.636L366.212 144.112C367.232 143.907 368.166 144.739 368.09 145.786L366.986 161.1C366.935 161.812 366.419 162.402 365.725 162.543L336.302 168.504C335.279 168.712 334.341 167.876 334.421 166.825L344.753 30.0005C344.806 29.2925 345.319 28.7062 346.009 28.5641Z" fill="white"/>
<path d="M112.821 212.645L123.153 75.8958C123.271 74.3345 125.321 73.8681 126.092 75.227L143.268 105.484C144.047 106.855 146.117 106.365 146.209 104.788L148.211 70.5816C148.253 69.8729 148.755 69.2779 149.443 69.1239L162.299 66.2424C163.333 66.0109 164.294 66.852 164.212 67.9163L153.671 205.407C153.546 207.045 151.34 207.438 150.666 205.942L134.883 170.925C134.208 169.428 131.999 169.824 131.877 171.464L128.998 210.352C128.945 211.067 128.423 211.658 127.725 211.794L114.69 214.327C113.67 214.525 112.742 213.69 112.821 212.645Z" fill="white"/>
<path d="M224.882 53.4526C212.245 55.6168 204.272 64.9615 203.571 76.2976C202.528 93.1808 199.995 131.847 198.207 151.446C196.418 171.044 200.349 181.279 204.168 184.811L232.043 209.462C233.021 210.327 234.558 209.693 234.654 208.385L241.119 120.498C241.197 119.44 240.245 118.604 239.217 118.827L221.641 122.639C220.956 122.787 220.451 123.373 220.4 124.077L219.363 138.48C219.289 139.5 220.176 140.323 221.178 140.165L223.003 139.878C223.506 139.799 223.95 140.213 223.91 140.725L221.437 172.459C221.366 173.371 220.535 174.051 219.681 173.745C213.423 171.506 212.65 162.082 213.109 157.307L219.219 76.2976C219.517 69.91 229.055 71.5257 229.055 75.734L227.292 97.1773C227.205 98.2343 228.149 99.0789 229.179 98.8653L241.914 96.2247C242.596 96.0833 243.105 95.5123 243.165 94.8125C243.842 86.9914 245.072 72.2278 245.299 67.4301C245.597 61.1177 240.679 50.7473 224.882 53.4526Z" fill="white"/>
<path fill-rule="evenodd" clip-rule="evenodd" d="M290.295 42.2688C290.405 40.824 288.697 39.9972 287.647 40.9873L251.414 75.1783C250.549 75.9948 250.019 77.1093 249.93 78.301L241.894 185.712C241.763 187.458 244.12 188.102 244.881 186.528L253.903 167.887C254.116 167.446 254.519 167.13 254.994 167.029L268.408 164.172C269.106 164.024 269.816 164.366 270.138 165.008L277.028 178.697C277.749 180.13 279.883 179.701 280.004 178.099L290.295 42.2688ZM262.574 138.192C261.542 138.43 260.576 137.595 260.651 136.53L263.953 89.7726C264.033 88.6419 264.509 87.5768 265.297 86.7685L269.798 82.1523C270.829 81.0945 272.608 81.9122 272.493 83.3911L268.414 135.703C268.36 136.395 267.866 136.972 267.195 137.127L262.574 138.192Z" fill="white"/>
<path fill-rule="evenodd" clip-rule="evenodd" d="M69.6455 133.41C69.9303 109.089 66.1423 97.5366 54.9204 93.8253L41.7879 122.486L53.4397 117.599C54.0466 117.344 54.6776 117.907 54.5014 118.546L53.0542 123.791L61.5711 118.776C62.2705 118.364 63.0569 119.156 62.6491 119.862L32.535 171.976C32.06 172.798 30.8141 172.236 31.1047 171.331L41.7879 138.043L21.109 146.969C20.5143 147.226 19.8833 146.69 20.0322 146.056L32.3615 93.4838C27.8776 94.1418 22.9082 95.088 17.412 96.2616C16.7307 96.4071 16.2073 96.9921 16.1522 97.6923L5.30392 235.449C5.22247 236.484 6.12966 237.318 7.14342 237.141L21.6224 234.615C22.3199 234.493 22.8514 233.917 22.9218 233.207L27.5715 186.314C28.9522 186.08 30.4054 185.82 31.9086 185.511L50.0793 227.066C50.3801 227.754 51.1176 228.135 51.847 227.98L68.4008 224.452C69.3931 224.241 69.9318 223.153 69.5032 222.226L49.5023 178.964C60.2093 172.304 69.34 159.506 69.6455 133.41Z" fill="white"/>
<path fill-rule="evenodd" clip-rule="evenodd" d="M295.829 41.2176L285.89 174.969C285.733 177.077 287.634 178.748 289.682 178.293C326.142 170.184 328.086 162.375 332.745 104.89C336.427 59.4542 337.648 31.6523 298.403 38.3603C297.005 38.5994 295.935 39.791 295.829 41.2176ZM309.666 62.5292L302.974 151.385C302.794 153.779 305.243 155.494 307.096 153.986C313.625 148.673 314.339 139.11 316.093 115.643C316.308 112.764 316.539 109.676 316.798 106.361C317.023 103.479 317.253 100.689 317.474 98.0043C319.478 73.6461 320.775 57.8967 311.665 59.971C310.506 60.2351 309.756 61.3335 309.666 62.5292Z" fill="white"/>
</svg>
