<svg width="26" height="26" viewBox="0 0 26 26" fill="none" xmlns="http://www.w3.org/2000/svg">
<path d="M0.854492 13.0002C0.854492 6.29233 6.29233 0.854492 13.0002 0.854492C19.7081 0.854492 25.146 6.29233 25.146 13.0002C25.146 19.7081 19.7081 25.146 13.0002 25.146C6.29233 25.146 0.854492 19.7081 0.854492 13.0002Z" fill="black"/>
<path fill-rule="evenodd" clip-rule="evenodd" d="M13 26C5.8203 26 0 20.1797 0 13C0 5.8203 5.8203 0 13 0C20.1797 0 26 5.8203 26 13C26 20.1797 20.1797 26 13 26ZM13 0.854261C6.2921 0.854261 0.854261 6.2921 0.854261 13C0.854261 19.7079 6.2921 25.1457 13 25.1457C19.7079 25.1457 25.1457 19.7079 25.1457 13C25.1457 6.2921 19.7079 0.854261 13 0.854261Z" fill="#8C8C8C"/>
<path fill-rule="evenodd" clip-rule="evenodd" d="M11.6205 10.6043L12.9707 4.98096L12.7493 5.01269C12.2502 5.08422 11.7548 5.17815 11.2612 5.27953C11.0412 5.32471 10.8785 5.50802 10.8607 5.72868L9.69516 20.1854C9.68202 20.3484 9.82839 20.4799 9.99195 20.452L11.6898 20.1627C11.8023 20.1435 11.8881 20.0528 11.8994 19.9408L12.3944 15.0655C12.4718 15.0522 12.5512 15.038 12.6323 15.0227L14.5455 19.2962C14.6051 19.4294 14.7514 19.5032 14.896 19.4731L16.7001 19.0976C16.8969 19.0566 17.0037 18.8459 16.9187 18.6663L14.8134 14.2185C15.9693 13.4665 16.9107 12.0673 16.9431 9.36744C16.9585 8.0832 16.8647 7.11597 16.6053 6.41608C16.3419 5.7055 15.9056 5.26616 15.2508 5.05461L15.1222 5.01305L13.4859 8.50108L14.9748 7.89109L14.7553 8.66819L15.777 8.08056L12.9722 12.8214L14.0352 9.58617L11.6205 10.6043Z" fill="#FF7C2A"/>
</svg>
