<svg width="52" height="52" viewBox="0 0 52 52" fill="none" xmlns="http://www.w3.org/2000/svg">
<path d="M2.4541 26.0003C2.4541 12.9961 12.9961 2.4541 26.0003 2.4541C39.0044 2.4541 49.5464 12.9961 49.5464 26.0003C49.5464 39.0044 39.0044 49.5464 26.0003 49.5464C12.9961 49.5464 2.4541 39.0044 2.4541 26.0003Z" fill="black" fill-opacity="0.2"/>
<path fill-rule="evenodd" clip-rule="evenodd" d="M26.0001 51.2024C12.0813 51.2024 0.797852 39.9189 0.797852 26.0001C0.797852 12.0813 12.0813 0.797852 26.0001 0.797852C39.9189 0.797852 51.2024 12.0813 51.2024 26.0001C51.2024 39.9189 39.9189 51.2024 26.0001 51.2024ZM26.0001 2.45395C12.9959 2.45395 2.45395 12.9959 2.45395 26.0001C2.45395 39.0043 12.9959 49.5463 26.0001 49.5463C39.0043 49.5463 49.5463 39.0043 49.5463 26.0001C49.5463 12.9959 39.0043 2.45395 26.0001 2.45395Z" fill="#8C8C8C" fill-opacity="0.2"/>
<path fill-rule="evenodd" clip-rule="evenodd" d="M23.3258 21.3556L25.9434 10.4541L25.5142 10.5156C24.5466 10.6543 23.5864 10.8364 22.6293 11.0329C22.2028 11.1205 21.8875 11.4759 21.853 11.9037L19.5934 39.93C19.5679 40.246 19.8517 40.5009 20.1688 40.4468L23.4602 39.8859C23.6784 39.8487 23.8446 39.6728 23.8667 39.4558L24.8262 30.0044C24.9762 29.9786 25.1303 29.9511 25.2875 29.9214L28.9964 38.2061C29.112 38.4644 29.3956 38.6075 29.6759 38.5491L33.1734 37.8211C33.5548 37.7417 33.7619 37.3332 33.5972 36.9851L29.5158 28.3624C31.7567 26.9044 33.5817 24.1919 33.6444 18.9579C33.6743 16.4682 33.4925 14.5931 32.9896 13.2363C32.4791 11.8587 31.6332 11.007 30.3639 10.5969L30.1144 10.5163L26.9423 17.2783L29.8287 16.0958L29.4031 17.6023L31.3838 16.4631L25.9464 25.6538L28.0072 19.3819L23.3258 21.3556Z" fill="#474747"/>
</svg>
