<svg width="252" height="113" viewBox="0 0 252 113" fill="none" xmlns="http://www.w3.org/2000/svg">
<g id="RENEGADES LOGO" opacity="0.2" clip-path="url(#clip0_353_47218)">
<path id="path191" d="M237.876 -22.3648C244.411 -22.3648 250.4 -15.7633 250.24 -8.89706C250.196 -7.04274 249.799 -1.21382 249.605 1.37364C249.574 1.7835 249.278 2.12292 248.88 2.20834L241.986 3.68563C241.384 3.81447 240.837 3.32913 240.902 2.7127C241.368 -1.69286 242.514 -12.1156 236.433 -11.6186C232.373 -11.2867 232.344 -7.94413 231.813 -4.69342C230.476 3.50129 239.507 15.0652 243.196 22.1672C244.767 25.1914 246.603 28.2233 247.28 31.664C249.954 45.2814 246.116 57.0446 233.742 58.8193C219.757 60.2839 218.238 43.1966 219.232 36.1541C219.285 35.7732 219.578 35.4762 219.951 35.3969C221.569 35.0535 225.235 34.2292 227.424 33.7372C228 33.6079 228.542 34.0491 228.529 34.6435C228.398 40.457 227.588 49.8926 233.006 48.6499C235.32 48.1191 237.124 46.8549 238.016 42.0952C238.781 38.0211 238.649 34.1008 236.764 30.4697C232.006 21.3072 223.219 9.88613 222.487 -0.715754C221.776 -11.0354 227.507 -22.3648 237.876 -22.3648Z" fill="white"/>
<path id="Vector 17" d="M49.3895 16.2916L66.0888 12.8522C66.683 12.7298 67.2304 13.2098 67.1927 13.8203L66.6573 22.4958C66.6316 22.9113 66.3352 23.2589 65.9316 23.3465L58.1781 25.0301C57.7806 25.1164 57.4862 25.4553 57.4536 25.8641L55.515 50.2211C55.466 50.8368 56.0152 51.3284 56.6155 51.2063L62.3248 50.0455C62.9244 49.9236 63.4732 50.414 63.4254 51.029L62.7464 59.7693C62.7146 60.1777 62.4214 60.517 62.0246 60.6045L55.3803 62.0691C54.9874 62.1558 54.6956 62.4894 54.6594 62.8933L52.7397 84.3304C52.6844 84.9482 53.2335 85.4462 53.8369 85.3253L61.2018 83.8498C61.7986 83.7302 62.3444 84.2165 62.3002 84.8286L61.6545 93.7822C61.6245 94.1985 61.3229 94.5435 60.9171 94.6257L43.7143 98.1114C43.1156 98.2327 42.5677 97.7439 42.6141 97.1299L48.6551 17.1314C48.6864 16.7175 48.9862 16.3747 49.3895 16.2916Z" fill="white"/>
<path id="Vector 49" d="M99.5789 5.74668L116.278 2.30726C116.872 2.18487 117.42 2.6649 117.382 3.27539L116.847 11.9509C116.821 12.3664 116.525 12.7139 116.121 12.8015L108.368 14.4852C107.97 14.5715 107.676 14.9104 107.643 15.3192L105.704 39.6762C105.655 40.2919 106.205 40.7835 106.805 40.6614L112.514 39.5006C113.114 39.3787 113.663 39.869 113.615 40.484L112.936 49.2244C112.904 49.6328 112.611 49.9721 112.214 50.0596L105.57 51.5242C105.177 51.6108 104.885 51.9444 104.849 52.3484L102.929 73.7855C102.874 74.4033 103.423 74.9013 104.026 74.7804L111.391 73.3048C111.988 73.1853 112.534 73.6716 112.49 74.2836L111.844 83.2372C111.814 83.6536 111.512 83.9986 111.107 84.0808L93.9037 87.5665C93.3051 87.6878 92.7572 87.199 92.8035 86.5849L98.8446 6.58652C98.8759 6.17257 99.1756 5.82975 99.5789 5.74668Z" fill="white"/>
<path id="Vector 51" d="M202.307 -15.2992L219.007 -18.7386C219.601 -18.861 220.148 -18.381 220.111 -17.7705L219.575 -9.095C219.55 -8.67954 219.253 -8.33197 218.85 -8.24435L211.096 -6.56073C210.699 -6.47441 210.404 -6.13549 210.372 -5.72671L208.433 18.6303C208.384 19.246 208.933 19.7376 209.534 19.6155L215.243 18.4547C215.842 18.3328 216.391 18.8232 216.343 19.4382L215.664 28.1785C215.633 28.5869 215.339 28.9262 214.943 29.0137L208.298 30.4783C207.905 30.5649 207.614 30.8986 207.577 31.3025L205.658 52.7396C205.602 53.3574 206.151 53.8554 206.755 53.7345L214.12 52.259C214.717 52.1394 215.262 52.6257 215.218 53.2377L214.573 62.1913C214.542 62.6077 214.241 62.9527 213.835 63.0349L196.632 66.5206C196.034 66.6419 195.486 66.1531 195.532 65.5391L201.573 -14.4594C201.604 -14.8733 201.904 -15.2161 202.307 -15.2992Z" fill="white"/>
<path id="Vector 48" d="M65.9656 92.329L72.0068 12.3747C72.0758 11.4619 73.274 11.1891 73.7251 11.9836L83.7677 29.674C84.2228 30.4756 85.4331 30.1892 85.4871 29.2671L86.6579 9.2676C86.6822 8.85323 86.976 8.50535 87.3778 8.4153L94.895 6.7306C95.4991 6.5952 96.0611 7.08702 96.0134 7.70929L89.8503 88.0972C89.7769 89.0547 88.487 89.2844 88.0929 88.41L78.8651 67.9363C78.4705 67.0607 77.1785 67.2925 77.1075 68.2516L75.424 90.9881C75.393 91.4064 75.0879 91.7519 74.6795 91.8313L67.0586 93.312C66.462 93.4279 65.9195 92.94 65.9656 92.329Z" fill="white"/>
<path id="Vector 50" d="M131.486 -0.747536C124.097 0.517838 119.435 5.98145 119.026 12.6094C118.416 22.4807 116.935 45.0879 115.889 56.5467C114.843 68.0056 117.142 73.9899 119.374 76.0549L135.673 90.4678C136.245 90.9733 137.143 90.6025 137.199 89.8379L140.98 38.4525C141.025 37.834 140.468 37.345 139.867 37.4754L129.591 39.7041C129.191 39.7909 128.895 40.1335 128.865 40.5452L128.259 48.9661C128.216 49.5623 128.734 50.0437 129.32 49.9514L130.387 49.7833C130.681 49.737 130.941 49.9796 130.917 50.2787L129.471 68.833C129.43 69.3661 128.944 69.7634 128.445 69.5846C124.786 68.2756 124.334 62.7655 124.602 59.9739L128.175 12.6094C128.349 8.87475 133.926 9.8194 133.926 12.2799L132.895 24.8173C132.844 25.4353 133.396 25.9292 133.998 25.8043L141.444 24.2604C141.843 24.1777 142.14 23.8439 142.176 23.4347C142.571 18.8619 143.291 10.2299 143.423 7.42483C143.598 3.7341 140.722 -2.32925 131.486 -0.747536Z" fill="white"/>
<path id="Subtract" fill-rule="evenodd" clip-rule="evenodd" d="M169.73 -7.28617C169.794 -8.13095 168.796 -8.61432 168.182 -8.03547L146.997 11.9552C146.491 12.4326 146.181 13.0842 146.129 13.781L141.431 76.5816C141.354 77.6027 142.732 77.9794 143.178 77.0591L148.453 66.1597C148.577 65.9024 148.812 65.7173 149.09 65.6581L156.933 63.988C157.341 63.9011 157.756 64.1015 157.945 64.4766L161.973 72.4803C162.395 73.3183 163.642 73.0676 163.713 72.1306L169.73 -7.28617ZM153.522 48.7982C152.919 48.9372 152.354 48.4489 152.398 47.8263L154.328 20.4882C154.375 19.8271 154.654 19.2044 155.114 18.7318L157.746 16.0328C158.349 15.4143 159.389 15.8924 159.321 16.7571L156.937 47.3424C156.905 47.7475 156.617 48.0849 156.224 48.1754L153.522 48.7982Z" fill="white"/>
<path id="Union" fill-rule="evenodd" clip-rule="evenodd" d="M40.7203 46.0018C40.8868 31.7819 38.672 25.0273 32.1107 22.8574L24.4323 39.6149L31.245 36.7573C31.5998 36.6084 31.9688 36.9374 31.8657 37.3108L31.0196 40.3777L35.9993 37.4454C36.4082 37.2046 36.868 37.6679 36.6296 38.0805L19.0223 68.5502C18.7446 69.0308 18.0161 68.7025 18.186 68.1732L24.4323 48.7104L12.3416 53.9293C11.994 54.0794 11.625 53.7664 11.7121 53.3953L18.9208 22.6577C16.2992 23.0424 13.3936 23.5956 10.1801 24.2818C9.78171 24.3669 9.47571 24.7089 9.44347 25.1183L3.10064 105.662C3.05301 106.266 3.58344 106.754 4.17616 106.651L12.6419 105.174C13.0497 105.103 13.3604 104.766 13.4016 104.351L16.1202 76.9336C16.9275 76.7966 17.7772 76.6444 18.656 76.4638L29.2802 100.76C29.4561 101.163 29.8873 101.385 30.3137 101.295L39.9926 99.2319C40.5727 99.1082 40.8877 98.4721 40.6371 97.9301L28.9429 72.6358C35.2031 68.7421 40.5417 61.2591 40.7203 46.0018Z" fill="white"/>
<path id="Subtract_2" fill-rule="evenodd" clip-rule="evenodd" d="M172.967 -7.9011L167.156 70.3001C167.064 71.5328 168.176 72.5101 169.373 72.2439C190.69 67.5026 191.827 62.9372 194.551 29.3266C196.704 2.76144 197.418 -13.4937 174.472 -9.57166C173.654 -9.43189 173.029 -8.73518 172.967 -7.9011ZM181.057 4.55933L177.145 56.5114C177.039 57.9112 178.471 58.9136 179.554 58.032C183.372 54.9256 183.79 49.3344 184.815 35.614C184.941 33.9306 185.076 32.125 185.227 30.1865C185.359 28.5016 185.493 26.8706 185.622 25.3008C186.794 11.0591 187.552 1.8508 182.226 3.0636C181.548 3.21801 181.11 3.86026 181.057 4.55933Z" fill="white"/>
</g>
<defs>
<clipPath id="clip0_353_47218">
<rect width="252" height="145" fill="white" transform="translate(0 -32)"/>
</clipPath>
</defs>
</svg>
