<svg width="455" height="340" viewBox="0 0 455 340" fill="none" xmlns="http://www.w3.org/2000/svg">
<g filter="url(#filter0_d_176_30078)">
<g clip-path="url(#clip0_176_30078)">
<rect x="206.469" y="89.6735" width="245.531" height="245.531" rx="13.2488" fill="#FF7C2A"/>
<path d="M242.53 265.305C246.059 262.539 261.957 256.931 269.464 254.472C265.594 253.013 258.505 249.264 261.105 245.945C264.356 241.796 280.609 223.357 290.826 221.975C298.999 220.868 303.519 220.745 304.757 220.822V213.677C303.286 212.832 300.113 210.082 299.184 205.841C298.256 201.6 296.63 196.698 295.934 194.778C295.005 195.93 292.497 197.544 289.897 194.778C286.646 191.321 281.306 184.637 282.699 177.722C284.092 170.808 285.717 169.886 285.717 169.886L287.111 159.284C284.556 160.513 279.123 162.925 277.823 162.741C276.198 162.51 286.646 154.904 287.575 151.447C284.711 151.985 278.473 152.553 276.43 150.525C278.442 149.373 282.931 146.33 284.789 143.38C286.646 140.43 290.361 137.388 291.987 136.235C287.498 136.389 278.102 135.498 276.43 130.704C280.609 131.011 290.361 130.381 295.934 125.403C293.921 125.095 289.897 124.02 289.897 122.176C292.064 122.253 296.909 121.669 298.952 118.719C301.506 115.031 309.633 115.723 312.187 116.644C311.181 115.646 309.169 113.233 309.169 111.574C309.169 109.5 311.955 115.262 318.921 114.57C325.886 113.879 338.425 108.808 343.997 120.563C347.403 118.104 352.495 111.758 345.622 106.042C350.034 106.58 357.371 111.067 351.427 124.711C353.362 123.713 357.418 120.931 358.161 117.797C359.322 119.718 361.086 124.527 358.857 128.399C360.096 128.169 363.083 128.307 365.126 130.704C367.68 133.7 372.092 138.079 376.272 135.083C375.033 136.696 371.813 139.923 368.841 139.923C365.126 139.923 372.556 145.224 376.272 146.146C375.033 147.222 372.185 149.327 370.699 149.142C372.556 150.448 376.364 154.259 376.736 159.053C375.031 158.066 371.371 156.056 369.344 155.305C369.926 157.819 371.64 162.661 374.182 163.202L370.699 162.51C371.009 164.508 371.535 168.779 371.163 169.886C372.015 169.655 373.81 170.024 374.182 173.343C374.646 177.492 375.111 183.945 374.646 185.328C374.275 186.434 368.145 193.318 365.126 196.622L361.876 195.7C360.096 201.308 356.117 212.755 354.446 213.677V220.822C357.696 221.206 364.708 221.975 366.752 221.975C369.306 221.975 387.649 233.499 391.596 239.03C395.543 244.562 398.794 246.636 397.865 248.48C397.122 249.955 392.602 252.782 390.435 254.011L415.279 265.536C428.561 284.508 433.585 312.697 435.631 335.204H221.814C226.016 317.577 228.601 276.221 242.53 265.305Z" fill="black"/>
</g>
</g>
<path d="M14.5391 41.0002C14.5391 19.8445 31.6892 2.69446 52.8449 2.69446C74.0005 2.69446 91.1506 19.8445 91.1506 41.0002C91.1506 62.1559 74.0005 79.306 52.8449 79.306C31.6892 79.306 14.5391 62.1559 14.5391 41.0002Z" fill="black"/>
<path fill-rule="evenodd" clip-rule="evenodd" d="M52.8437 82C30.2001 82 11.8438 63.6437 11.8438 41C11.8438 18.3563 30.2001 0 52.8437 0C75.4874 0 93.8438 18.3563 93.8438 41C93.8438 63.6437 75.4874 82 52.8437 82ZM52.8437 2.69421C31.688 2.69421 14.538 19.8443 14.538 41C14.538 62.1557 31.688 79.3058 52.8437 79.3058C73.9994 79.3058 91.1495 62.1557 91.1495 41C91.1495 19.8443 73.9994 2.69421 52.8437 2.69421Z" fill="#8C8C8C"/>
<path fill-rule="evenodd" clip-rule="evenodd" d="M48.4926 33.4442L52.751 15.7092L52.0528 15.8092C50.4787 16.0348 48.9165 16.3311 47.3595 16.6508C46.6657 16.7933 46.1527 17.3714 46.0966 18.0674L42.4206 63.6617C42.3791 64.1757 42.8407 64.5904 43.3566 64.5025L48.7113 63.59C49.0662 63.5295 49.3367 63.2433 49.3725 62.8903L50.9334 47.5143C51.1776 47.4724 51.4282 47.4277 51.684 47.3792L57.7177 60.8572C57.9059 61.2773 58.3671 61.5102 58.8232 61.4153L64.513 60.2308C65.1336 60.1017 65.4705 59.4371 65.2025 58.8708L58.5627 44.843C62.2082 42.4712 65.1773 38.0584 65.2793 29.5434C65.3279 25.4932 65.0321 22.4427 64.214 20.2353C63.3835 17.9943 62.0074 16.6087 59.9424 15.9415L59.5366 15.8104L54.376 26.8111L59.0717 24.8873L58.3794 27.3381L61.6016 25.4848L52.7559 40.4366L56.1085 30.2333L48.4926 33.4442Z" fill="#FF7C2A"/>
<path d="M14.6808 124.571H13.0048C12.5919 124.571 12.3854 124.364 12.3854 123.951V121H11.766C10.0415 121 8.68128 120.502 7.68541 119.506C6.68954 118.486 6.19161 117.089 6.19161 115.316V114.478C6.19161 114.041 6.41021 113.822 6.84742 113.822H9.14278C9.5557 113.822 9.76216 114.041 9.76216 114.478V115.025C9.76216 116.045 9.99291 116.786 10.4544 117.247C10.9159 117.684 11.6689 117.903 12.7133 117.903H14.6079C15.6281 117.903 16.3689 117.672 16.8304 117.211C17.2919 116.725 17.5226 115.948 17.5226 114.879V113.713C17.5226 112.693 17.2069 112.001 16.5754 111.636C15.9438 111.248 14.9965 111.017 13.7335 110.944C11.9361 110.871 10.6852 110.738 9.98076 110.543C9.27637 110.349 8.6327 110.045 8.04975 109.633C6.81099 108.782 6.19161 107.216 6.19161 104.933V103.22C6.19161 101.447 6.6774 100.062 7.64897 99.0666C8.64484 98.0465 10.0172 97.5364 11.766 97.5364H12.3854V94.5488C12.3854 94.1358 12.5919 93.9294 13.0048 93.9294H14.6808C15.0937 93.9294 15.3002 94.1358 15.3002 94.5488V97.5364H15.4823C17.134 97.5364 18.4335 98.0465 19.3808 99.0666C20.3524 100.087 20.8382 101.471 20.8382 103.22V104.022C20.8382 104.459 20.6317 104.677 20.2188 104.677H17.9234C17.4862 104.677 17.2676 104.459 17.2676 104.022V103.548C17.2676 102.528 17.0369 101.799 16.5754 101.362C16.1381 100.9 15.3973 100.67 14.3529 100.67H12.6769C11.6082 100.67 10.8552 100.913 10.418 101.398C9.98076 101.86 9.76216 102.661 9.76216 103.803V105.042C9.76216 105.965 10.0658 106.608 10.673 106.973C11.3045 107.337 12.264 107.556 13.5513 107.629L15.4095 107.702C17.1097 107.799 18.4821 108.284 19.5265 109.159C20.571 110.009 21.0932 111.479 21.0932 113.567V115.316C21.0932 117.089 20.5831 118.486 19.563 119.506C18.5671 120.502 17.2069 121 15.4823 121H15.3002V123.951C15.3002 124.364 15.0937 124.571 14.6808 124.571ZM28.6197 121H26.3243C25.9114 121 25.705 120.794 25.705 120.381V98.1922C25.705 97.7793 25.9114 97.5728 26.3243 97.5728H34.85C36.6231 97.5728 38.0076 98.0829 39.0035 99.103C40.0236 100.099 40.5337 101.483 40.5337 103.257V106.317C40.5337 109.11 39.3799 110.871 37.0724 111.6V111.746L41.1166 120.271C41.3838 120.757 41.2259 121 40.643 121H38.3841C37.8011 121 37.4246 120.794 37.2546 120.381L33.3562 112.001H29.6763C29.3848 112.001 29.2391 112.122 29.2391 112.365V120.381C29.2391 120.794 29.0326 121 28.6197 121ZM29.6399 109.086H34.267C36.0644 109.086 36.9631 108.199 36.9631 106.426V103.366C36.9631 101.568 36.0644 100.67 34.267 100.67H29.6399C29.3727 100.67 29.2391 100.791 29.2391 101.034V108.722C29.2391 108.965 29.3727 109.086 29.6399 109.086ZM57.7303 121H46.0714C45.6585 121 45.452 120.794 45.452 120.381V98.1922C45.452 97.7793 45.6585 97.5728 46.0714 97.5728H57.7303C58.119 97.5728 58.3133 97.7793 58.3133 98.1922V100.05C58.3133 100.463 58.119 100.67 57.7303 100.67H49.4233C49.1319 100.67 48.9861 100.791 48.9861 101.034V107.191C48.9861 107.434 49.1319 107.556 49.4233 107.556H56.4552C56.8924 107.556 57.111 107.762 57.111 108.175V110.033C57.111 110.446 56.8924 110.653 56.4552 110.653H49.4233C49.1319 110.653 48.9861 110.774 48.9861 111.017V117.502C48.9861 117.77 49.1319 117.903 49.4233 117.903H57.7303C58.119 117.903 58.3133 118.11 58.3133 118.522V120.381C58.3133 120.794 58.119 121 57.7303 121ZM65.8358 121H63.5769C63.164 121 62.9575 120.794 62.9575 120.381V98.1922C62.9575 97.7793 63.164 97.5728 63.5769 97.5728H65.6172C66.0058 97.5728 66.273 97.7064 66.4188 97.9736L75.2358 113.822H75.3816V98.1922C75.3816 97.7793 75.588 97.5728 76.001 97.5728H78.2599C78.6728 97.5728 78.8793 97.7793 78.8793 98.1922V120.381C78.8793 120.794 78.6728 121 78.2599 121H76.2924C75.9038 121 75.588 120.806 75.3451 120.417L66.6009 104.75H66.4552V120.381C66.4552 120.794 66.2487 121 65.8358 121ZM85.4741 121H82.8509C82.5108 121 82.3894 120.794 82.4865 120.381L88.8261 98.1922C88.9475 97.7793 89.239 97.5728 89.7005 97.5728H93.3439C93.8297 97.5728 94.1212 97.7793 94.2183 98.1922L100.558 120.381C100.655 120.794 100.521 121 100.157 121H97.5703C97.3517 121 97.1938 120.964 97.0966 120.891C97.0238 120.794 96.9631 120.624 96.9145 120.381L95.53 115.644H87.5145L86.13 120.381C86.0328 120.794 85.8142 121 85.4741 121ZM91.4493 101.07L88.2431 112.729H94.8377L91.5951 101.07H91.4493Z" fill="white"/>
<path d="M142.384 226.482L156.421 209.898C156.887 209.348 157.042 208.682 156.853 208.047C156.663 207.411 156.145 206.858 155.412 206.509L133.3 195.981C132.753 195.72 132.116 195.587 131.468 195.598C130.82 195.609 130.192 195.764 129.662 196.043C129.131 196.323 128.724 196.714 128.49 197.167C128.256 197.62 128.207 198.115 128.349 198.589L131.655 209.681C124.746 210.693 117.594 210.164 111.082 208.16C104.569 206.156 98.9831 202.765 95.0131 198.405C91.0432 194.046 88.8638 188.909 88.7443 183.631C88.6247 178.352 90.5704 173.163 94.3407 168.705C94.806 168.155 94.9612 167.489 94.7719 166.854C94.5826 166.218 94.0644 165.665 93.3314 165.316C92.5983 164.967 91.7104 164.851 90.863 164.993C90.0156 165.135 89.2781 165.523 88.8127 166.073C84.345 171.351 82.0422 177.497 82.1902 183.748C82.3382 189.999 84.9305 196.08 89.6453 201.236C94.3601 206.392 100.99 210.395 108.712 212.751C116.434 215.106 124.908 215.708 133.082 214.484L136.423 225.701C136.563 226.176 136.889 226.608 137.357 226.943C137.826 227.279 138.417 227.503 139.055 227.586C139.693 227.67 140.35 227.61 140.943 227.413C141.535 227.216 142.037 226.892 142.384 226.482Z" fill="#FF7C2A"/>
<defs>
<filter id="filter0_d_176_30078" x="204.261" y="89.6735" width="249.948" height="249.947" filterUnits="userSpaceOnUse" color-interpolation-filters="sRGB">
<feFlood flood-opacity="0" result="BackgroundImageFix"/>
<feColorMatrix in="SourceAlpha" type="matrix" values="0 0 0 0 0 0 0 0 0 0 0 0 0 0 0 0 0 0 127 0" result="hardAlpha"/>
<feOffset dy="2.20813"/>
<feGaussianBlur stdDeviation="1.10407"/>
<feComposite in2="hardAlpha" operator="out"/>
<feColorMatrix type="matrix" values="0 0 0 0 0 0 0 0 0 0 0 0 0 0 0 0 0 0 0.25 0"/>
<feBlend mode="normal" in2="BackgroundImageFix" result="effect1_dropShadow_176_30078"/>
<feBlend mode="normal" in="SourceGraphic" in2="effect1_dropShadow_176_30078" result="shape"/>
</filter>
<clipPath id="clip0_176_30078">
<rect x="206.469" y="89.6735" width="245.531" height="245.531" rx="13.2488" fill="white"/>
</clipPath>
</defs>
</svg>
