<svg width="531" height="401" viewBox="0 0 531 401" fill="none" xmlns="http://www.w3.org/2000/svg">
<g filter="url(#filter0_d_325_41200)">
<g clip-path="url(#clip0_325_41200)">
<rect x="194" y="256" width="140" height="140" rx="13.2488" fill="#FF7C2A"/>
<path d="M214.562 356.144C216.574 354.567 225.639 351.369 229.92 349.967C227.713 349.135 223.671 346.997 225.153 345.105C227.007 342.739 236.274 332.226 242.1 331.437C246.76 330.806 249.337 330.736 250.043 330.78V326.706C249.205 326.224 247.395 324.656 246.866 322.238C246.336 319.82 245.41 317.025 245.012 315.93C244.483 316.587 243.053 317.507 241.57 315.93C239.717 313.958 236.672 310.147 237.466 306.205C238.26 302.262 239.187 301.736 239.187 301.736L239.981 295.691C238.525 296.392 235.427 297.768 234.686 297.662C233.759 297.531 239.717 293.194 240.246 291.223C238.613 291.53 235.056 291.854 233.891 290.697C235.039 290.04 237.598 288.305 238.657 286.623C239.717 284.941 241.835 283.206 242.762 282.549C240.202 282.637 234.845 282.129 233.891 279.395C236.274 279.57 241.835 279.211 245.012 276.373C243.865 276.197 241.57 275.584 241.57 274.533C242.806 274.577 245.568 274.244 246.733 272.561C248.19 270.459 252.824 270.853 254.28 271.379C253.706 270.809 252.559 269.434 252.559 268.487C252.559 267.305 254.147 270.59 258.119 270.196C262.091 269.802 269.24 266.91 272.418 273.613C274.36 272.211 277.263 268.593 273.345 265.333C275.86 265.64 280.044 268.198 276.654 275.978C277.758 275.409 280.07 273.823 280.494 272.036C281.156 273.131 282.162 275.873 280.891 278.081C281.597 277.95 283.301 278.028 284.466 279.395C285.922 281.104 288.437 283.601 290.82 281.892C290.114 282.812 288.278 284.652 286.584 284.652C284.466 284.652 288.702 287.675 290.82 288.2C290.114 288.814 288.49 290.014 287.643 289.909C288.702 290.653 290.873 292.826 291.085 295.56C290.113 294.997 288.026 293.851 286.871 293.423C287.202 294.856 288.18 297.617 289.629 297.925L287.643 297.531C287.82 298.67 288.12 301.106 287.908 301.736C288.393 301.605 289.417 301.815 289.629 303.708C289.894 306.073 290.158 309.753 289.894 310.542C289.682 311.172 286.187 315.097 284.466 316.981L282.612 316.455C281.597 319.653 279.329 326.18 278.375 326.706V330.78C280.229 330.999 284.227 331.437 285.392 331.437C286.849 331.437 297.308 338.008 299.558 341.162C301.809 344.316 303.663 345.499 303.133 346.55C302.709 347.391 300.132 349.004 298.896 349.704L313.063 356.275C320.636 367.093 323.5 383.167 324.667 396H202.75C205.146 385.949 206.62 362.368 214.562 356.144Z" fill="black"/>
</g>
</g>
<g clip-path="url(#clip1_325_41200)">
<path d="M246.481 178.039L262.749 161.771C263.081 161.439 263.531 161.252 264 161.252C264.469 161.252 264.919 161.439 265.251 161.771L281.519 178.039C281.767 178.286 281.936 178.602 282.005 178.945C282.073 179.289 282.038 179.645 281.904 179.968C281.77 180.292 281.543 180.568 281.252 180.763C280.961 180.957 280.618 181.061 280.268 181.061L265.769 181.059L265.771 217.224C265.771 217.694 265.584 218.144 265.252 218.477C264.92 218.809 264.47 218.995 264 218.995C263.53 218.995 263.08 218.809 262.748 218.477C262.416 218.144 262.229 217.694 262.229 217.224L262.231 181.059L247.732 181.061C247.382 181.061 247.039 180.957 246.748 180.763C246.457 180.568 246.23 180.292 246.096 179.968C245.962 179.645 245.927 179.289 245.995 178.945C246.064 178.602 246.233 178.286 246.481 178.039Z" fill="#FF7C2A"/>
</g>
<g filter="url(#filter1_d_325_41200)">
<g clip-path="url(#clip2_325_41200)">
<rect x="3" y="203" width="140" height="139" rx="13.2488" fill="#626F7F"/>
<path d="M13.9805 342C14.7469 334.329 17.0973 317.773 20.3674 314.941C24.455 311.401 33.6521 304.067 41.3164 300.274L43.1047 300.779C44.7228 299.431 48.1121 296.733 48.7252 296.733C49.3384 296.733 51.1948 295.216 52.0464 294.457H53.8347L58.4333 290.411L59.1997 277.514C58.4333 277.092 56.6961 275.491 55.8785 272.456C54.7516 273.2 52.6306 274.718 52.1465 275.482C52.0842 275.77 52.0464 275.887 52.0464 275.744C52.0464 275.672 52.0819 275.584 52.1465 275.482C52.3485 274.544 52.8079 271.791 53.0683 270.18C52.071 270.885 50.2394 272.287 49.6672 273.081C49.5598 273.464 49.4916 273.639 49.4916 273.468C49.4916 273.368 49.5554 273.236 49.6672 273.081C49.9394 272.11 50.4637 269.8 50.769 268.41C48.8104 268.831 44.5354 269.421 43.1047 268.41C44.4673 267.904 47.2435 266.589 47.4478 265.375C45.404 265.881 40.4478 266.336 36.9733 264.111C39.3578 263.352 44.2288 261.531 44.6376 260.318C42.5938 259.896 38.3529 258.8 37.7397 257.789L41.3164 256.524C38.5062 256.187 32.7835 254.552 32.3747 250.708C35.0147 250.876 40.4989 250.809 41.3164 249.19C39.8687 248.263 36.9733 246.055 36.9733 244.639C36.9733 242.868 40.55 247.673 45.6595 243.121C50.769 238.569 52.3019 210.752 73.2509 219.097C77.2534 216.821 86.9955 214.899 93.9445 225.419C102.631 238.569 97.5211 243.88 105.441 244.639C108.326 244.915 109.837 244.992 110.539 244.97C110.547 244.853 110.55 244.742 110.55 244.639C111.061 244.776 111.379 244.944 110.539 244.97C110.435 246.557 109.574 249.191 106.718 249.191C108.677 250.455 113.156 252.529 115.404 250.708C114.723 252.309 112.032 255.715 106.718 256.524C107.655 256.861 109.631 257.435 110.039 257.03C109.273 258.294 106.923 260.672 103.653 260.065C104.504 261.413 107.076 264.06 110.55 263.858C109.358 264.954 105.901 266.893 101.609 265.881C102.12 266.387 103.448 267.5 104.674 267.904C106.207 268.41 99.565 270.433 97.7766 268.916C95.9883 267.398 98.7985 273.215 98.2876 273.721C97.8788 274.125 95.7328 271.866 94.7109 270.686L95.7328 275.997L92.6671 272.962C91.9007 274.479 90.2656 277.514 89.8569 277.514C89.3459 277.514 89.8569 289.905 90.8788 291.423C91.6963 292.636 105.015 300.695 111.572 304.573C112.083 304.32 113.361 303.966 114.383 304.573C115.66 305.331 126.218 311.568 126.901 312.665C127.559 313.723 132.01 322.236 132.01 325.815C132.01 329.395 130.733 336.942 130.222 338.207C129.813 339.218 130.563 341.157 130.989 342H13.9805Z" fill="black"/>
</g>
</g>
<g clip-path="url(#clip3_325_41200)">
<path d="M88.0085 123.585L110.231 117.63C110.684 117.509 111.168 117.572 111.574 117.807C111.98 118.042 112.277 118.428 112.399 118.882L118.353 141.104C118.444 141.443 118.433 141.8 118.32 142.132C118.208 142.463 117.999 142.754 117.722 142.968C117.444 143.181 117.109 143.307 116.759 143.33C116.41 143.352 116.062 143.271 115.758 143.096L103.203 135.845L85.1215 167.166C84.8867 167.572 84.4999 167.869 84.0463 167.991C83.5927 168.112 83.1094 168.049 82.7027 167.814C82.296 167.579 81.9992 167.192 81.8776 166.739C81.7561 166.285 81.8197 165.802 82.0545 165.395L100.138 134.076L87.5812 126.828C87.2778 126.653 87.0332 126.392 86.8782 126.078C86.7232 125.764 86.6649 125.411 86.7107 125.063C86.7564 124.716 86.9042 124.39 87.1352 124.127C87.3663 123.864 87.6702 123.675 88.0085 123.585Z" fill="#FF7C2A"/>
</g>
<path d="M76.8594 43.5003C76.8594 21.0546 95.0552 2.85876 117.501 2.85876C139.947 2.85876 158.142 21.0546 158.142 43.5003C158.142 65.946 139.947 84.1418 117.501 84.1418C95.0552 84.1418 76.8594 65.946 76.8594 43.5003Z" fill="black"/>
<path fill-rule="evenodd" clip-rule="evenodd" d="M117.5 87C93.4756 87 74 67.5244 74 43.5C74 19.4756 93.4756 0 117.5 0C141.524 0 161 19.4756 161 43.5C161 67.5244 141.524 87 117.5 87ZM117.5 2.85849C95.0543 2.85849 76.8585 21.0543 76.8585 43.5C76.8585 65.9457 95.0543 84.1415 117.5 84.1415C139.946 84.1415 158.142 65.9457 158.142 43.5C158.142 21.0543 139.946 2.85849 117.5 2.85849Z" fill="#8C8C8C"/>
<path fill-rule="evenodd" clip-rule="evenodd" d="M112.885 35.4834L117.403 16.667L116.662 16.7732C114.992 17.0125 113.334 17.3268 111.682 17.6661C110.946 17.8172 110.402 18.4306 110.342 19.169L106.442 67.5434C106.398 68.0888 106.888 68.5288 107.435 68.4355L113.117 67.4674C113.493 67.4032 113.78 67.0996 113.818 66.725L115.474 50.4115C115.733 50.367 115.999 50.3196 116.27 50.2682L122.672 64.5679C122.872 65.0137 123.361 65.2608 123.845 65.16L129.882 63.9034C130.54 63.7663 130.898 63.0612 130.613 62.4604L123.569 47.5773C127.436 45.0608 130.586 40.3789 130.695 31.3448C130.746 27.0476 130.433 23.8111 129.565 21.4691C128.683 19.0914 127.223 17.6213 125.032 16.9135L124.602 16.7744L119.127 28.4459L124.109 26.4047L123.374 29.005L126.793 27.0387L117.408 42.9022L120.965 32.0768L112.885 35.4834Z" fill="#FF7C2A"/>
<path d="M223.859 84.5003C223.859 62.0546 242.055 43.8588 264.501 43.8588C286.947 43.8588 305.142 62.0546 305.142 84.5003C305.142 106.946 286.947 125.142 264.501 125.142C242.055 125.142 223.859 106.946 223.859 84.5003Z" fill="black"/>
<path fill-rule="evenodd" clip-rule="evenodd" d="M264.5 128C240.476 128 221 108.524 221 84.5C221 60.4756 240.476 41 264.5 41C288.524 41 308 60.4756 308 84.5C308 108.524 288.524 128 264.5 128ZM264.5 43.8585C242.054 43.8585 223.858 62.0543 223.858 84.5C223.858 106.946 242.054 125.142 264.5 125.142C286.946 125.142 305.142 106.946 305.142 84.5C305.142 62.0543 286.946 43.8585 264.5 43.8585Z" fill="#8C8C8C"/>
<path fill-rule="evenodd" clip-rule="evenodd" d="M259.885 76.4834L264.403 57.667L263.662 57.7732C261.992 58.0125 260.334 58.3268 258.682 58.6661C257.946 58.8172 257.402 59.4306 257.342 60.169L253.442 108.543C253.398 109.089 253.888 109.529 254.435 109.436L260.117 108.467C260.493 108.403 260.78 108.1 260.818 107.725L262.474 91.4115C262.733 91.367 262.999 91.3196 263.27 91.2682L269.672 105.568C269.872 106.014 270.361 106.261 270.845 106.16L276.882 104.903C277.54 104.766 277.898 104.061 277.613 103.46L270.569 88.5773C274.436 86.0608 277.586 81.3789 277.695 72.3448C277.746 68.0476 277.433 64.8111 276.565 62.4691C275.683 60.0914 274.223 58.6213 272.032 57.9135L271.602 57.7744L266.127 69.4459L271.109 67.4047L270.374 70.005L273.793 68.0387L264.408 83.9022L267.965 73.0768L259.885 76.4834Z" fill="#FF7C2A"/>
<path d="M223.859 84.5003C223.859 62.0546 242.055 43.8588 264.501 43.8588C286.947 43.8588 305.142 62.0546 305.142 84.5003C305.142 106.946 286.947 125.142 264.501 125.142C242.055 125.142 223.859 106.946 223.859 84.5003Z" fill="black"/>
<path fill-rule="evenodd" clip-rule="evenodd" d="M264.5 128C240.476 128 221 108.524 221 84.5C221 60.4756 240.476 41 264.5 41C288.524 41 308 60.4756 308 84.5C308 108.524 288.524 128 264.5 128ZM264.5 43.8585C242.054 43.8585 223.858 62.0543 223.858 84.5C223.858 106.946 242.054 125.142 264.5 125.142C286.946 125.142 305.142 106.946 305.142 84.5C305.142 62.0543 286.946 43.8585 264.5 43.8585Z" fill="#8C8C8C"/>
<path fill-rule="evenodd" clip-rule="evenodd" d="M259.885 76.4834L264.403 57.667L263.662 57.7732C261.992 58.0125 260.334 58.3268 258.682 58.6661C257.946 58.8172 257.402 59.4306 257.342 60.169L253.442 108.543C253.398 109.089 253.888 109.529 254.435 109.436L260.117 108.467C260.493 108.403 260.78 108.1 260.818 107.725L262.474 91.4115C262.733 91.367 262.999 91.3196 263.27 91.2682L269.672 105.568C269.872 106.014 270.361 106.261 270.845 106.16L276.882 104.903C277.54 104.766 277.898 104.061 277.613 103.46L270.569 88.5773C274.436 86.0608 277.586 81.3789 277.695 72.3448C277.746 68.0476 277.433 64.8111 276.565 62.4691C275.683 60.0914 274.223 58.6213 272.032 57.9135L271.602 57.7744L266.127 69.4459L271.109 67.4047L270.374 70.005L273.793 68.0387L264.408 83.9022L267.965 73.0768L259.885 76.4834Z" fill="#FF7C2A"/>
<path d="M371.859 46.5003C371.859 24.0546 390.055 5.85876 412.501 5.85876C434.947 5.85876 453.142 24.0546 453.142 46.5003C453.142 68.946 434.947 87.1418 412.501 87.1418C390.055 87.1418 371.859 68.946 371.859 46.5003Z" fill="black"/>
<path fill-rule="evenodd" clip-rule="evenodd" d="M412.5 90C388.476 90 369 70.5244 369 46.5C369 22.4756 388.476 3 412.5 3C436.524 3 456 22.4756 456 46.5C456 70.5244 436.524 90 412.5 90ZM412.5 5.85849C390.054 5.85849 371.858 24.0543 371.858 46.5C371.858 68.9457 390.054 87.1415 412.5 87.1415C434.946 87.1415 453.142 68.9457 453.142 46.5C453.142 24.0543 434.946 5.85849 412.5 5.85849Z" fill="#8C8C8C"/>
<path fill-rule="evenodd" clip-rule="evenodd" d="M407.885 38.4834L412.403 19.667L411.662 19.7732C409.992 20.0125 408.334 20.3268 406.682 20.6661C405.946 20.8172 405.402 21.4306 405.342 22.169L401.442 70.5434C401.398 71.0888 401.888 71.5288 402.435 71.4355L408.117 70.4674C408.493 70.4032 408.78 70.0996 408.818 69.725L410.474 53.4115C410.733 53.367 410.999 53.3196 411.27 53.2682L417.672 67.5679C417.872 68.0137 418.361 68.2608 418.845 68.16L424.882 66.9034C425.54 66.7663 425.898 66.0612 425.613 65.4604L418.569 50.5773C422.436 48.0608 425.586 43.3789 425.695 34.3448C425.746 30.0476 425.433 26.8111 424.565 24.4691C423.683 22.0914 422.223 20.6213 420.032 19.9135L419.602 19.7744L414.127 31.4459L419.109 29.4047L418.374 32.005L421.793 30.0387L412.408 45.9022L415.965 35.0768L407.885 38.4834Z" fill="#FF7C2A"/>
<g clip-path="url(#clip4_325_41200)">
<path d="M446.349 123.585L424.126 117.63C423.673 117.509 423.19 117.572 422.783 117.807C422.377 118.042 422.08 118.428 421.959 118.882L416.004 141.104C415.913 141.443 415.925 141.8 416.037 142.132C416.15 142.463 416.358 142.754 416.636 142.968C416.914 143.181 417.249 143.307 417.598 143.33C417.948 143.352 418.296 143.271 418.599 143.096L431.155 135.845L449.236 167.166C449.471 167.572 449.857 167.869 450.311 167.991C450.765 168.112 451.248 168.049 451.655 167.814C452.061 167.579 452.358 167.192 452.48 166.739C452.601 166.285 452.538 165.802 452.303 165.395L434.219 134.076L446.776 126.828C447.08 126.653 447.324 126.392 447.479 126.078C447.634 125.764 447.692 125.411 447.647 125.063C447.601 124.716 447.453 124.39 447.222 124.127C446.991 123.864 446.687 123.675 446.349 123.585Z" fill="#FF7C2A"/>
</g>
<g filter="url(#filter2_d_325_41200)">
<g clip-path="url(#clip5_325_41200)">
<rect x="388" y="203" width="140" height="139" rx="13.2488" fill="#B83032"/>
<path d="M399.668 342C400.397 333.665 402.195 316.366 403.555 315.395C405.256 314.181 406.228 313.938 406.714 313.452C407.103 313.064 410.439 311.025 412.059 310.054C412.302 309.325 412.934 307.82 413.517 307.626C414.246 307.383 417.162 304.227 417.89 303.985C418.474 303.79 423.803 301.476 426.394 300.343C427.933 298.644 431.156 295.196 431.74 295.002C432.468 294.759 432.468 292.089 433.197 291.846C433.78 291.652 440.567 286.91 443.888 284.563V279.951C442.997 279.222 441.069 277.183 440.486 274.853C439.903 272.522 438.948 269.997 438.543 269.026C437.733 269.755 435.821 270.774 434.655 269.026C433.197 266.841 429.796 262.714 430.525 258.83C431.108 255.723 431.092 255.431 431.011 255.674L430.039 255.189C430.282 254.784 430.816 253.683 431.011 252.518C431.217 251.279 431.775 247.934 432.236 246.961C431.451 247.476 429.207 248.519 428.095 248.148C428.743 247.663 430.282 245.818 431.254 242.322C432.468 237.952 433.683 237.224 434.169 236.981C434.655 236.738 431.497 236.981 430.525 235.767C431.659 235.363 434.072 234.311 434.655 233.34C435.384 232.126 438.543 230.669 439.515 231.155C439.434 230.426 438.688 228.921 436.356 228.727C437.409 228.08 439.952 227.028 441.701 227.999C442.106 227.109 443.451 225.183 445.589 224.6C447.727 224.017 448.909 222.091 449.233 221.201C449.45 222.212 449.744 224.24 449.391 225.079C450.086 224.06 451.767 222.415 454.093 222.415C457.251 222.415 464.054 222.415 464.783 220.716C464.654 221.747 464.299 223.6 463.767 224.311C465.327 223.41 468.63 222.563 472.315 224.843L474.745 226.542H472.315C472.801 226.704 474.064 227.319 475.231 228.484C476.688 229.941 481.062 233.34 482.277 233.34C481.872 234.149 480.77 235.767 479.604 235.767C480.333 236.657 481.839 238.972 482.034 241.108C482.277 243.779 483.734 248.391 484.949 249.362C483.896 249.362 481.694 249.216 481.305 248.634C481.629 249.848 482.374 252.372 482.763 252.761C483.151 253.149 481.953 252.923 481.305 252.761L481.548 254.217C482.196 254.137 483.589 254.023 483.977 254.217C484.463 254.46 485.192 255.431 485.678 262.229C484.382 264.899 481.451 270.191 480.09 269.997C478.729 269.803 477.903 269.269 477.66 269.026L474.988 276.795C474.664 277.766 473.87 279.756 473.287 279.951L473.53 284.806C476.121 286.424 481.548 290.001 482.52 291.361C483.734 293.06 484.22 293.788 484.463 294.759C484.706 295.731 489.809 299.372 490.295 300.1C490.78 300.829 496.369 301.8 497.827 303.256C499.284 304.713 504.387 308.112 504.387 308.84C504.387 309.423 504.549 310.054 504.63 310.297C506.087 311.187 509.343 313.113 510.704 313.695C512.405 314.424 513.62 314.728 514.105 316.123C516.049 321.707 517.021 342 517.021 342C517.021 342 438.705 342.324 399.668 342Z" fill="black"/>
</g>
</g>
<defs>
<filter id="filter0_d_325_41200" x="191.792" y="256" width="144.416" height="144.416" filterUnits="userSpaceOnUse" color-interpolation-filters="sRGB">
<feFlood flood-opacity="0" result="BackgroundImageFix"/>
<feColorMatrix in="SourceAlpha" type="matrix" values="0 0 0 0 0 0 0 0 0 0 0 0 0 0 0 0 0 0 127 0" result="hardAlpha"/>
<feOffset dy="2.20813"/>
<feGaussianBlur stdDeviation="1.10407"/>
<feComposite in2="hardAlpha" operator="out"/>
<feColorMatrix type="matrix" values="0 0 0 0 0 0 0 0 0 0 0 0 0 0 0 0 0 0 0.25 0"/>
<feBlend mode="normal" in2="BackgroundImageFix" result="effect1_dropShadow_325_41200"/>
<feBlend mode="normal" in="SourceGraphic" in2="effect1_dropShadow_325_41200" result="shape"/>
</filter>
<filter id="filter1_d_325_41200" x="0.791867" y="203" width="144.416" height="143.416" filterUnits="userSpaceOnUse" color-interpolation-filters="sRGB">
<feFlood flood-opacity="0" result="BackgroundImageFix"/>
<feColorMatrix in="SourceAlpha" type="matrix" values="0 0 0 0 0 0 0 0 0 0 0 0 0 0 0 0 0 0 127 0" result="hardAlpha"/>
<feOffset dy="2.20813"/>
<feGaussianBlur stdDeviation="1.10407"/>
<feComposite in2="hardAlpha" operator="out"/>
<feColorMatrix type="matrix" values="0 0 0 0 0 0 0 0 0 0 0 0 0 0 0 0 0 0 0.25 0"/>
<feBlend mode="normal" in2="BackgroundImageFix" result="effect1_dropShadow_325_41200"/>
<feBlend mode="normal" in="SourceGraphic" in2="effect1_dropShadow_325_41200" result="shape"/>
</filter>
<filter id="filter2_d_325_41200" x="385.792" y="203" width="144.416" height="143.416" filterUnits="userSpaceOnUse" color-interpolation-filters="sRGB">
<feFlood flood-opacity="0" result="BackgroundImageFix"/>
<feColorMatrix in="SourceAlpha" type="matrix" values="0 0 0 0 0 0 0 0 0 0 0 0 0 0 0 0 0 0 127 0" result="hardAlpha"/>
<feOffset dy="2.20813"/>
<feGaussianBlur stdDeviation="1.10407"/>
<feComposite in2="hardAlpha" operator="out"/>
<feColorMatrix type="matrix" values="0 0 0 0 0 0 0 0 0 0 0 0 0 0 0 0 0 0 0.25 0"/>
<feBlend mode="normal" in2="BackgroundImageFix" result="effect1_dropShadow_325_41200"/>
<feBlend mode="normal" in="SourceGraphic" in2="effect1_dropShadow_325_41200" result="shape"/>
</filter>
<clipPath id="clip0_325_41200">
<rect x="194" y="256" width="140" height="140" rx="13.2488" fill="white"/>
</clipPath>
<clipPath id="clip1_325_41200">
<rect width="56.6313" height="56.6313" fill="white" transform="translate(264 223.089) rotate(-135)"/>
</clipPath>
<clipPath id="clip2_325_41200">
<rect x="3" y="203" width="140" height="139" rx="13.2488" fill="white"/>
</clipPath>
<clipPath id="clip3_325_41200">
<rect width="56.6313" height="56.6313" fill="white" transform="translate(80.6562 171.359) rotate(-105)"/>
</clipPath>
<clipPath id="clip4_325_41200">
<rect width="56.6313" height="56.6313" fill="white" transform="matrix(0.258819 -0.965926 -0.965926 -0.258819 453.701 171.359)"/>
</clipPath>
<clipPath id="clip5_325_41200">
<rect x="388" y="203" width="140" height="139" rx="13.2488" fill="white"/>
</clipPath>
</defs>
</svg>
