<svg width="10" height="18" viewBox="0 0 10 18" fill="none" xmlns="http://www.w3.org/2000/svg">
<path d="M1.51706 0.260696L9.51321 8.25685C9.59581 8.33936 9.66135 8.43735 9.70606 8.54521C9.75077 8.65307 9.77378 8.76868 9.77378 8.88544C9.77378 9.00219 9.75077 9.11781 9.70606 9.22566C9.66135 9.33352 9.59581 9.43151 9.51321 9.51402L1.51706 17.5102C1.3928 17.6346 1.23443 17.7193 1.06199 17.7536C0.889554 17.788 0.710807 17.7704 0.548376 17.7031C0.385944 17.6358 0.247133 17.5218 0.149517 17.3756C0.0519013 17.2293 -0.000130525 17.0574 7.83401e-06 16.8816L7.52332e-06 9.7739C-9.24623e-06 8.54521 4.91077e-06 9.51402 7.44565e-06 7.99697L7.13496e-06 0.889282C-0.000131239 0.713459 0.0519005 0.541548 0.149516 0.395313C0.247132 0.249077 0.385944 0.135096 0.548375 0.067791C0.710806 0.00048825 0.889554 -0.017107 1.06199 0.0172309C1.23443 0.0515708 1.3928 0.136301 1.51706 0.260696Z" fill="white"/>
</svg>
