<svg width="95" height="95" viewBox="0 0 95 95" fill="none" xmlns="http://www.w3.org/2000/svg">
<rect x="1.17195" y="1.17195" width="92.8715" height="92.8715" rx="46.4357" fill="black" stroke="#8C8C8C" stroke-width="1.6561"/>
<path fill-rule="evenodd" clip-rule="evenodd" d="M42.1538 39.4985L46.9934 19.1489L46.1999 19.2637C44.4109 19.5226 42.6355 19.8625 40.866 20.2294C40.0775 20.3929 39.4945 21.0562 39.4307 21.8548L35.2529 74.1706C35.2058 74.7604 35.7305 75.2362 36.3167 75.1354L42.4023 74.0883C42.8057 74.0189 43.113 73.6905 43.1538 73.2855L44.9277 55.6428C45.2052 55.5947 45.49 55.5434 45.7807 55.4878L52.6381 70.9526C52.8519 71.4348 53.3761 71.702 53.8945 71.593L60.3609 70.234C61.0661 70.0858 61.449 69.3232 61.1444 68.6734L53.5984 52.5777C57.7415 49.8562 61.1157 44.7928 61.2317 35.0227C61.2869 30.3753 60.9508 26.8751 60.0211 24.3423C59.0771 21.7709 57.5133 20.181 55.1663 19.4155L54.7052 19.2651L48.8403 31.8875L54.1768 29.6801L53.3901 32.4922L57.0521 30.3657L46.999 47.5217L50.8091 35.8142L42.1538 39.4985Z" fill="#FF7C2A"/>
</svg>
